<?xml version="1.0" encoding="utf-8"?>
<!-- Generator: Adobe Illustrator 19.2.1, SVG Export Plug-In . SVG Version: 6.00 Build 0)  -->
<svg version="1.1" id="Layer_1" xmlns="http://www.w3.org/2000/svg" xmlns:xlink="http://www.w3.org/1999/xlink" x="0px" y="0px"
	 viewBox="0 0 40 40" style="enable-background:new 0 0 40 40;" xml:space="preserve">
<style type="text/css">
	.st0{fill:#B59757;}
</style>
<g>
	<path class="st0" d="M22.8,29.9l0.7-1.2c2.4-3.9,2.3-6.7,1.6-8.6c-0.9,3.4-3,5.8-3.8,6.7C21.2,26.9,21,27,20.7,27h-1.4
		c-0.3,0-0.5-0.1-0.7-0.3c-0.8-0.9-2.9-3.3-3.8-6.7c-0.7,1.9-0.7,4.7,1.6,8.6l0.7,1.2l-1.4,2.4h0l4.2,7.4l4.2-7.4L22.8,29.9z"/>
	<path class="st0" d="M29.7,15.3c-1.4-1.8-2.5-4.2-2.5-7.9c0-1.7-1.5-3.4-3.2-5C22,0.6,21.6,0,20,0v0c0,0,0,0,0,0c0,0,0,0,0,0v0
		c-1.6,0-2,0.6-3.9,2.4c-1.7,1.6-3.2,3.3-3.2,5c0,3.7-1.2,6.1-2.5,7.8l-5.9,6l-4.4-3v5.4c0,0,0.1,10.6,15.6,16.4c0,0-5.9-3-6.8-13
		c-0.1-0.7-0.1-3.8-0.1-4.3c2.1,3.4,5.6,7.3,5.7,7.3c0,0,0,0,0,0c-0.3-0.5-0.6-1.1-0.9-1.6c-2.1-4.4-1.7-7.6-0.7-9.8
		c1.2-2.5,3.1-3.7,3.1-3.7l4,4v0l0,0l0,0v0l4-4c0,0,1.9,1.2,3.1,3.7c1,2.2,1.5,5.4-0.6,9.7c-0.3,0.6-0.6,1.1-0.9,1.7c0,0,0,0,0,0
		c0.1,0,3.6-3.9,5.7-7.3c0,0.5,0,3.6-0.1,4.3c-1,10-6.8,13-6.8,13C39.9,34.2,40,23.6,40,23.6v-5.4l-4.4,3L29.7,15.3z"/>
</g>
</svg>
