<?xml version="1.0" encoding="utf-8"?>
<!-- Generator: Adobe Illustrator 19.2.1, SVG Export Plug-In . SVG Version: 6.00 Build 0)  -->
<svg version="1.1" id="Layer_1" xmlns="http://www.w3.org/2000/svg" xmlns:xlink="http://www.w3.org/1999/xlink" x="0px" y="0px"
	 viewBox="0 0 40 40" style="enable-background:new 0 0 40 40;" xml:space="preserve">
<style type="text/css">
	.st0{fill:#B59757;}
</style>
<g>
	<g>
		<path class="st0" d="M27.5,22.6l0,2.3l0,0c3.6-3.6,6,0,6,0c12.5-8.8,3.4-25,3.4-25s-0.3,7.2-6.3,11.6l0,6.9
			C30.5,20.4,29,21.7,27.5,22.6"/>
		<path class="st0" d="M6.6,25c0,0,1.7-2.7,4.5-1.1l-3.2-4.7l2.8-6.7C3.5,8.1,3.2,0,3.2,0S-5.9,16.2,6.6,25"/>
		<path class="st0" d="M10.4,34.1l2.3-7.8l-0.1-0.2l-5.4,5.5c-1.3,1.3-3,2.1-4.9,2.2l-1.9,0l-0.4,1l5,4.8L10.4,34.1z"/>
		<path class="st0" d="M37.7,34.1c-1.8,0-3.6-0.8-4.9-2.2l-4.9-4.9l1.6,7.4L35,40l5-4.8l-0.4-1L37.7,34.1z"/>
		<path class="st0" d="M22.5,16.9c0,0.1-0.1,0.2-0.1,0.3c0.1,0,0.2,0,0.3,0c2.4,0.2,3.2,1.1,3.8,3.2c0.4-0.2,0.7-0.5,1-0.8
			c0.4-0.4,0.7-0.7,0.7-1.1l0-7.7c0-0.4-0.3-0.7-0.7-0.8L14.4,7.6c-0.1,0-0.1,0-0.2,0c-0.5,0-1,0.4-1,1v2.8l10.4,1.4L22.5,16.9z"/>
		<path class="st0" d="M24.3,21.6c-0.5-2.2-0.6-1.9-2.4-2l-5.7-0.5v-1.5v-0.1h2.3c0.8,0,1.5-0.5,1.7-1.3l0.4-1.4l-7.9-1.1l-2.1,5.1
			l4.9,7.1l-2.3,7.7L20,40l6.9-6.3C26.9,33.7,24.3,21.8,24.3,21.6"/>
	</g>
	<polygon class="st0" points="20,0 18,4.3 20,5.9 22,4.3 	"/>
	<polygon class="st0" points="25.1,3 25.7,5.5 28.2,5.5 29.4,0.9 	"/>
	<polygon class="st0" points="11.8,5.5 12.8,5.5 14.3,5.5 14.4,5.2 14.9,3 10.6,0.9 	"/>
</g>
</svg>
