<?xml version="1.0" encoding="utf-8"?>
<!-- Generator: Adobe Illustrator 19.0.0, SVG Export Plug-In . SVG Version: 6.00 Build 0)  -->
<svg version="1.1" id="Layer_1" xmlns="http://www.w3.org/2000/svg" xmlns:xlink="http://www.w3.org/1999/xlink" x="0px" y="0px"
	 viewBox="-11 -8 810 810" style="enable-background:new -11 -8 810 810;" xml:space="preserve">
<style type="text/css">
	.st0{fill:#867B72;}
</style>
<g>
	<g>
		<path class="st0" d="M589.8,801.8H229l-9.7-9.7H45.8c0,0.6,0,1.2,0,1.7c0,2.2-0.1,4.4-0.5,6.6l-0.1,0.7h-55.5v-55.6l0.7-0.1
			c2.9-0.3,5.7-0.5,8.3-0.3V571.9h0.1l-9.8-10.1V201.2c0-43.4,13.2-85,38.2-120.4l0.2-0.3h24.5c1.7-2.2,3.6-4.3,5.4-6.4l0.2-0.2
			h13.3v-4h1.5v5.6h-5.6v-0.7v0.7h-8.7c-1.5,1.6-3,3.4-4.4,5.1h7.1v0.8v-0.8h16.7V63.8H79V82H61.2c-16.5,19-28.7,40.6-36.2,64.6
			l-0.1,0.2l-7.9,4.4l4.4,7.9l-0.1,0.2c-3.2,13.7-4.9,27.6-4.9,41.9v332.9c3.9-2.9,8.4-5.1,13.3-6.5l0.5-0.1l5.4,5.4
			c3.9-0.6,7.8-0.6,11.7,0l5.4-5.4l0.5,0.1c8.3,2.3,15.6,7.2,21.2,13.9c14.2-0.3,28.6,1.2,42.5,4.4l8.3-4.7l4.9,8.3
			c13.8,4.4,26.8,10.4,38.9,18c11.2-3.8,24.1-2.8,34.5,3l0.3,0.2v7.8c3.2,2.3,6,5.1,8.4,8.4h7.8l0.2,0.3c3.5,6.2,5.3,13.4,5.3,20.6
			c0,4.7-0.8,9.4-2.3,13.8c7.6,12.1,13.7,25.2,18.1,38.9l8.3,4.7l-4.7,8.2c3,12.7,4.5,25.9,4.5,39c0,1.2,0,2.4,0,3.6
			c6.7,5.6,11.5,12.8,13.9,21.2l0.1,0.5l-5.4,5.4c0.3,2,0.5,3.9,0.5,5.8c0,1.9-0.1,3.8-0.5,5.8l5.4,5.4l-0.1,0.5
			c-1.4,4.9-3.6,9.4-6.5,13.4H590c14.1,0,28.2-1.6,41.9-4.9l0.2-0.1l7.9,4.4l4.4-7.9l0.2-0.1c23.8-7.5,45.6-19.7,64.6-36.2v-17.8
			h18.2v1.5h-16.7V737c1.7-1.4,3.4-2.9,5.1-4.4v-14.1h5.6v1.5h-4v13.3l-0.2,0.2l0,0c-2.1,1.9-4.2,3.7-6.4,5.4v24.5l-0.3,0.2
			C674.8,788.6,633.2,801.8,589.8,801.8z M229.6,800.3h360.2c42.9,0,84.2-13,119.2-37.6v-22.6c-20.3,16.4-43.6,28.3-68.4,35.3
			l-0.2,0.5l-0.5-0.2c-16.2,4.4-33.1,6.7-50.2,6.7H246.5l1.6-1.3c2-1.6,3.7-3.4,5.3-5.2h-9.1l1.4-1.3c5.3-5.1,9-11.8,10.4-19
			l-6.4-6.4l6.4-6.4c-1.2-6.4-4.2-12.4-8.6-17.1l-0.2-0.2v-0.3c0.2-2.8,0.3-5.4,0.3-8.1c-2-1.5-3.9-2.9-6.1-4l-0.2-0.3v-0.5
			c0-10.1-1-20.1-2.9-30.1v-0.2l9.1-16l-5.7-3.2l0,0l-10.5-6l-0.1-0.2c-3.5-9.5-7.9-18.6-13-27.2L218,629l0.2-0.3
			c1.3-2.1,2.3-4.4,3.1-6.7c-1.5-2.3-3-4.6-4.5-6.8l-0.2-0.2l0.1-0.3c0.5-2.2,0.6-4.4,0.6-6.6c0-7.1-2.1-13.8-6-19.6h-9.1v-9.1
			c-7.5-5.2-16.9-7.2-26.2-5.4l-0.3,0.1l-0.2-0.2c-2.2-1.5-4.5-3.1-6.8-4.5c-2.3,0.8-4.5,1.9-6.7,3.1l-0.3,0.2l-0.3-0.2
			c-8.6-5.1-17.7-9.5-27.2-13l-0.2-0.1l-9.3-16.1l-16,9.1h-0.2c-10-1.9-20-2.8-30-2.9h-0.5l-0.2-0.3c-1.2-2.1-2.5-4.2-4.1-6
			c-2.7,0.1-5.3,0.2-8.1,0.3h-0.3l-0.2-0.2c-4.9-4.4-10.8-7.4-17.1-8.6l-6.4,6.4l-6.4-6.4c-7.3,1.4-13.8,4.9-18.9,10.3l-1.3,1.4v-9
			c-1.9,1.6-3.6,3.4-5.2,5.3l-1.3,1.6v-343c0-17.1,2.3-34,6.7-50.2l-0.2-0.5l0.5-0.2c6.9-24.9,18.9-48.1,35.2-68.4H28
			C3.6,116.9-9.5,158.2-9.5,201.2v360l41,41v7.1l-0.2,0.2c-3.5,3-5.4,7.4-5.4,12s2,9,5.4,12l0.2,0.2v103.7l-8,8
			c9.3,5.1,16.9,12.7,22,22.1l7.8-7.8l0,0l0.2-0.2h103.7l0.2,0.2c3,3.5,7.4,5.4,12,5.4s9-2,12-5.4l0.2-0.2h6.9l0.2,0.2L229.6,800.3z
			 M-8.7,799.5H44c0.2-2,0.3-3.9,0.3-5.8c0-0.6,0-1.2,0-1.7h-6.7v-0.7c-1.2-20.6-17.6-37-38.1-38.3h-0.7v-6.7
			c-2.4-0.1-4.9,0-7.4,0.3v52.9H-8.7z M0.2,751.7c20.7,1.6,37.3,18.2,38.8,38.9h5.2c-0.2-3.4-0.8-6.6-1.7-9.8l-0.1-0.5l5.1-5.1
			c-5.4-14.7-17.1-26.5-31.8-31.9l-5,5.1l-0.5-0.1c-3.2-0.9-6.6-1.5-10-1.7C0.2,746.5,0.2,751.7,0.2,751.7z M44.1,780.7
			c0.9,3.2,1.4,6.5,1.6,9.8h5c-0.2-4.7-1.2-9.4-2.7-13.8L44.1,780.7z M49.4,776.1c1.5,4.6,2.5,9.5,2.8,14.3h165.6l-29.9-29.8h-5.7
			c-3.2,3.7-8,5.8-12.8,5.8c-5,0-9.6-2.1-13-5.8H64l-14.8,14.9C49.3,775.8,49.4,776,49.4,776.1l-0.6,0.2L49.4,776.1z M250.6,780.7
			h339.3c16.4,0,32.6-2.1,48.3-6.2l-6.4-3.6c-13.7,3.2-27.8,4.9-41.9,4.9H255.5C253.9,777.5,252.4,779.2,250.6,780.7z M257.3,756.7
			c-1.4,6.6-4.6,12.6-9.4,17.5h6.6c3.1-3.9,5.3-8.4,6.8-13.4L257.3,756.7z M46.3,768.6c0.9,1.7,1.7,3.6,2.4,5.3l13.2-13.2h-7.8
			L46.3,768.6z M645.2,767.2l-3.6,6.4c24.5-7.1,47.4-19,67.3-35.3v-6.6C690.2,747.8,668.8,759.7,645.2,767.2z M251.9,749.2l4.5,4.5
			c0.2-1.5,0.3-3,0.3-4.5c0-1.5-0.1-3-0.3-4.5L251.9,749.2z M0.2,745c3.4,0.2,6.7,0.8,10,1.7l3.9-3.9c-4.5-1.5-9.1-2.4-13.9-2.8
			L0.2,745z M16.9,742.1c1.9,0.7,3.6,1.5,5.2,2.3l7.9-7.9v-7.8L16.9,742.1z M0.2,738.5c5,0.3,10,1.3,14.8,2.9l-0.2,0.6l0.2-0.6
			c0.1,0,0.2,0.1,0.2,0.1L30,726.7v-92.4c-3.7-3.2-5.8-8-5.8-13s2.1-9.6,5.8-12.8v-5.7L0.2,573.1V738.5z M248.8,724.9
			c4.3,4.7,7.2,10.4,8.6,16.7l0,0l0,0l4-4c-2.2-7.5-6.5-14.1-12.3-19.2C249.1,720.4,249,722.7,248.8,724.9z M242.6,711.8
			c1.7,0.9,3.4,2.1,5,3.2c0-0.8,0-1.6,0-2.4c0-12.4-1.4-24.9-4.1-37l-3.8,6.6C241.7,692,242.6,702,242.6,711.8z M232.6,655.8
			l6.7,3.8c-4.2-12.6-9.8-24.8-16.8-36c-0.7,1.9-1.6,3.7-2.5,5.4C224.8,637.4,229.1,646.4,232.6,655.8z M218.3,614.5
			c1.3,1.9,2.5,3.7,3.8,5.6c1.3-3.9,1.9-8,1.9-12.1c0-6.8-1.7-13.5-5-19.6h-5.8c3.7,5.8,5.8,12.5,5.8,19.6
			C218.9,610.1,218.7,612.3,218.3,614.5z M203.8,587h6.5c-1.9-2.4-4.1-4.6-6.5-6.5V587z M182.7,571.8c6.9,0,13.7,2,19.6,5.8v-5.8
			c-9.6-5.2-21.3-6.4-31.7-3.1c1.9,1.3,3.8,2.4,5.6,3.8C178.3,572,180.5,571.8,182.7,571.8z M134.9,558.2
			c9.4,3.5,18.3,7.8,26.8,12.7c1.7-1,3.6-1.9,5.4-2.5c-11.2-6.9-23.4-12.6-36.1-16.8L134.9,558.2z M78.9,548c9.8,0,19.8,1,29.6,2.8
			l6.6-3.8c-13-2.9-26.3-4.3-39.5-4C76.8,544.6,77.9,546.2,78.9,548z M16.5,535.9v6.6c4.9-4.6,10.8-7.8,17.4-9.3l0,0l0,0l-4-4
			C25,530.7,20.6,532.9,16.5,535.9z M49.2,533.4c6.2,1.3,11.9,4.3,16.7,8.6c2.2-0.1,4.5-0.2,6.7-0.3c-5.1-5.9-11.8-10.1-19.2-12.3
			L49.2,533.4z M16.3,152.8c-4.2,15.6-6.2,31.8-6.2,48.4V540c1.6-1.7,3.2-3.4,5.1-4.7V201.2c0-14.1,1.6-28.2,4.9-41.9L16.3,152.8z
			 M37,534.3l4.5,4.5l4.5-4.5C43,534,40,534,37,534.3z M52.6,82c-16.4,19.9-28.4,42.8-35.4,67.3l6.4-3.6c7.5-23.5,19.4-45,35.5-63.7
			L52.6,82z M223.4,765.6L223.4,765.6L223.4,765.6L223.4,765.6c-8.8,0-16.1-6.9-16.4-15.7h-29c-0.3,4.4-4,7.8-8.4,7.8
			c-4.5,0-8.1-3.5-8.4-7.8h-51l-3.2,3.2l-4-4l4-4l3.2,3.2h51c0.3-4.4,4.1-7.8,8.4-7.8c4.4,0,8.1,3.5,8.4,7.8h29
			c0.3-8.7,7.6-15.7,16.4-15.7c9,0,16.4,7.4,16.4,16.4c0,4.4-1.7,8.6-4.9,11.7C232,763.8,227.8,765.6,223.4,765.6z M223.4,734.1
			c-8.2,0-14.9,6.7-14.9,14.9c0,8.2,6.7,14.9,14.9,14.9l0,0l0,0c4.1,0,7.8-1.5,10.5-4.4c2.8-2.8,4.4-6.6,4.4-10.5
			C238.5,740.8,231.8,734.1,223.4,734.1z M169.4,742.1c-3.9,0-7.1,3.1-7.1,7.1c0,3.9,3.1,7.1,7.1,7.1c3.9,0,7.1-3.1,7.1-7.1
			C176.5,745.2,173.3,742.1,169.4,742.1z M104.7,749.2l1.9,1.9l1.9-1.9l-1.9-1.9L104.7,749.2z M64.1,748.5c-4.5,0-8.8-1.4-12.5-3.9
			l-0.3-0.2v-4.9h-4.9l-0.2-0.3c-2.5-3.7-3.9-8-3.9-12.5c0-4.5,1.4-8.8,3.9-12.5l0.2-0.3h4.9v-4.9l0.3-0.2c3.7-2.5,8-3.9,12.5-3.9
			c4.5,0,8.8,1.4,12.5,3.9l0.3,0.2v4.9h4.9l0.2,0.3c2.5,3.7,3.9,8,3.9,12.5c0,4.5-1.4,8.8-3.9,12.5l-0.2,0.3h-4.9v4.9l-0.3,0.2
			C72.9,747.1,68.6,748.5,64.1,748.5z M52.8,743.5c3.4,2.2,7.3,3.5,11.2,3.5c4,0,8-1.2,11.3-3.5v-3.4c-3.1,2.5-7.1,4.2-11.3,4.2
			s-8.2-1.5-11.2-4C52.8,740.2,52.8,743.5,52.8,743.5z M52.8,738.2c2.9,2.8,6.9,4.6,11.2,4.6c4.4,0,8.4-1.7,11.3-4.6v-0.2h0.2
			c2.9-2.9,4.6-6.9,4.6-11.3s-1.7-8.4-4.6-11.3h-0.2V715c-2.9-2.9-6.9-4.6-11.3-4.6s-8.3,1.7-11.2,4.6v0.2h-0.2
			c-2.9,2.9-4.6,6.9-4.6,11.3s1.7,8.3,4.6,11.3h0.3v0.2H52.8z M77.6,737.9H81c2.2-3.4,3.5-7.3,3.5-11.3s-1.2-8-3.5-11.3h-3.4
			c2.5,3.1,4.1,7.1,4.1,11.3S80.2,734.8,77.6,737.9z M47.2,737.9h3.4c-2.5-3-4-7.1-4-11.3s1.5-8.2,4-11.3h-3.4
			c-2.3,3.4-3.5,7.3-3.5,11.3S44.9,734.6,47.2,737.9z M64.1,708.9c4.3,0,8.2,1.5,11.3,4.2v-3.4c-3.4-2.3-7.3-3.5-11.3-3.5
			s-7.9,1.2-11.2,3.5v3.4C55.9,710.5,59.8,708.9,64.1,708.9z M125.3,739v-1.5h31.2c3.2-3.7,8-5.8,12.8-5.8c5,0,9.6,2.1,12.8,5.8h5.7
			l21.4-21.3h6.2c0-1.2,0-2.3,0-3.5c0-25.6-7.1-50.4-20.4-72.1l-36.9,24.4H142l-4.4,4.4l-1-1l9.7-9.7h0.3c4.6,0.3,9.1-1.4,12.4-4.6
			s5-7.8,4.6-12.4v-0.3l8.2-8.2l1,1l-7.8,7.8c0.2,4.9-1.6,9.7-5.1,13.2c-3.5,3.5-8.3,5.3-13.2,5.1l-3.4,3.4h14.5l50.2-33.3l0.5,0.7
			c6.7,10.6,12,22.1,16,34l9,5.1l-5.2,9c2.4,11,3.7,22.3,3.7,33.7c0,1.4,0,2.9,0,4.3v0.7h-22L188.7,739h-7.1l-0.2-0.2
			c-3-3.5-7.4-5.4-12-5.4s-9,2-12,5.4l-0.2,0.2L125.3,739z M217.2,716.2h13.4c0-1.2,0-2.3,0-3.5c0-11.3-1.3-22.7-3.7-33.7l-0.1-0.2
			l4.7-8.2l-8.2-4.6l-0.1-0.2c-3.8-11.7-8.9-22.9-15.4-33.3l-11.2,7.4c13.4,21.9,20.6,47.1,20.6,72.9
			C217.2,713.9,217.2,715,217.2,716.2z M64.1,737.1c-5.8,0-10.5-4.7-10.5-10.5s4.7-10.5,10.5-10.5s10.5,4.7,10.5,10.5
			C74.5,732.4,69.9,737.1,64.1,737.1z M64.1,717.6c-5,0-9,4-9,9s4,9,9,9s9-4,9-9C73,721.6,69.1,717.6,64.1,717.6z M140.2,731.6
			c-1.2-15.4-6.4-30.2-15-42.9l1.3-0.8c8.8,13,14.1,28,15.3,43.6L140.2,731.6z M156.1,731.6c-1.3-19.6-8-38.3-19.6-54.3l1.2-0.9
			c11.7,16.1,18.5,35.2,19.8,55L156.1,731.6z M99.7,725.4c-4.7,0-8.6-3.8-8.6-8.6c0-4.7,3.8-8.6,8.6-8.6c4.7,0,8.6,3.8,8.6,8.6
			C108.3,721.6,104.5,725.4,99.7,725.4z M99.7,709.8c-3.9,0-7.1,3.1-7.1,7.1c0,3.9,3.1,7.1,7.1,7.1c3.9,0,7.1-3.1,7.1-7.1
			C106.9,712.9,103.7,709.8,99.7,709.8z M589.8,724.1h-76.3v-6.7h-6.6V700h37.7c11.9,0,23.8-1.5,35.3-4.6l0.6-0.1l0.3,0.5
			c6.1,9.4,13.2,18.4,20.9,26.5l1,1.2l-1.5,0.1C597.4,723.8,593.6,724.1,589.8,724.1z M515,722.5h74.8c3.2,0,6.5-0.1,9.7-0.3
			c-1.5-1.6-2.9-3.2-4.4-4.9c-1.9,0.1-3.6,0.1-5.4,0.1h-74.8v5.1H515z M515,715.8h74.8c1.4,0,2.8,0,4.2-0.1
			c-5.1-6-9.8-12.3-14.1-18.9c-11.5,3-23.3,4.5-35.2,4.5h-29.7v14.5H515z M508.4,715.8h5.1v-14.3h-5.1V715.8z M486.3,724.1h-77v-6.7
			h-6.6V700h90.1v17.4h-6.6L486.3,724.1L486.3,724.1z M410.9,722.5h73.9v-5.2h-73.9V722.5z M410.9,715.8h73.9v-14.3h-73.9V715.8z
			 M404.3,715.8h5.1v-14.3h-5.1V715.8z M486.3,715.8h5.1v-14.3h-5.1V715.8z M382.1,724.1h-84.9v-0.8c0.1-2,0.2-3.9,0.2-5.8h-6.6
			v-0.8c0-1.9,0.1-3.8,0.1-5.7c0-16.2-1.9-32.4-5.6-48.1l-0.1-0.7l6.2-2.2c-0.5-1.9-0.9-3.8-1.5-5.9l-0.2-0.7l30.1-10.8l0.3,0.5
			c1.3,2.1,2.5,3.9,3.9,5.7l0.1,0.1c13.8,18.2,34.6,29.6,57.2,31.5c2.2,0.2,4.4,0.2,6.5,0.2h0.7v36.8H382v6.7H382.1z M298.8,722.5
			h81.8v-5.2h-81.7C299,719.1,298.9,720.8,298.8,722.5z M382.1,715.8h5.1v-33.8c-1.6,0-3.4-0.1-5.1-0.2V715.8z M299,715.8h81.6v-34
			c-22.7-2.1-43.5-13.5-57.3-31.7l-30,10.8c3.8,16.3,5.8,33.2,5.8,50.1C299.1,712.6,299.1,714.2,299,715.8z M292.5,715.8h5.1
			c0-1.6,0-3.4,0-5c0-16.7-1.9-33.3-5.7-49.5l-4.7,1.7c3.6,15.6,5.4,31.7,5.4,47.8C292.5,712.6,292.5,714.2,292.5,715.8z
			 M291.7,654.4c0.5,1.7,0.9,3.5,1.3,5.1l29.4-10.5c-1-1.4-2-2.9-3-4.4L291.7,654.4z M637.9,714.9l-0.3-0.2c-2-1.6-3.8-3.2-5.7-5
			l-0.9-0.8l0,0c-17.7-16.5-31.5-37-39.9-59.6l0,0l-0.3-0.8c-0.6-1.7-1.3-3.5-1.9-5.6l-0.2-0.6l0.6-0.3c6.2-3.6,12-7.9,17.2-12.7
			l0.9-0.8l0.3,1.2c0.5,1.6,0.9,3.4,1.4,5c1.5-1.4,3-2.9,4.4-4.3l0.9-0.9l0.3,1.3c7.5,25.7,22.8,48.1,44.1,64.8l0.8,0.7l-0.8,0.6
			c-1.6,1-3.4,2.2-5,3.1c1.5,1.3,3.1,2.4,4.7,3.6l0.9,0.7l-0.9,0.6c-6.5,3.9-13.2,7.4-20.3,10.2L637.9,714.9z M633.9,709.5
			c1.4,1.3,2.9,2.5,4.4,3.8c6.4-2.5,12.6-5.7,18.6-9.3c-1.5-1.2-2.9-2.2-4.4-3.4l0,0C646.5,704,640.2,707,633.9,709.5z M592.5,648.6
			c8.4,22.6,22.3,43.3,40.2,59.7c6.4-2.3,12.6-5.3,18.6-8.7c-19.9-16.4-34.7-37.9-42.8-62.2C603.4,641.6,598.1,645.4,592.5,648.6z
			 M609.6,636.2c8,24.5,22.8,46.2,42.9,62.6c1.5-0.9,3-1.9,4.5-2.9c-20.7-16.4-35.8-38.4-43.4-63.6
			C612.5,633.6,611.1,635,609.6,636.2z M590.5,643.1c0.5,1.5,0.9,2.8,1.4,4c5.7-3.2,11.1-7.1,16-11.5c-0.5-1.5-0.9-3-1.3-4.5
			C601.7,635.8,596.3,639.7,590.5,643.1z M73.8,699.4c-4.7,0-8.6-3.8-8.6-8.6c0-4.7,3.8-8.6,8.6-8.6s8.6,3.8,8.6,8.6
			C82.4,695.6,78.6,699.4,73.8,699.4z M73.8,683.8c-3.9,0-7.1,3.1-7.1,7.1c0,3.9,3.1,7.1,7.1,7.1s7.1-3.1,7.1-7.1
			C80.9,687,77.8,683.8,73.8,683.8z M104.1,692.2h-5.7v-5.7h4.6l38.1-38.1c-2.8-3.4-2.7-8.3,0.5-11.6l0,0c1.6-1.6,3.7-2.5,6-2.5
			c2.1,0,3.9,0.7,5.6,2l18.5-18.5c-2.8-3-4.3-6.9-4.3-11.1c0-4.4,1.7-8.6,4.9-11.7l0,0c3.1-3.1,7.3-4.9,11.7-4.9
			c4.4,0,8.6,1.7,11.7,4.9c3.1,3.1,4.9,7.3,4.9,11.7c0,4.4-1.7,8.6-4.9,11.7c-3.1,3.1-7.3,4.9-11.7,4.9c-4.2,0-8.1-1.5-11.1-4.3
			l-18.5,18.5c1.3,1.5,2,3.5,2,5.4c0,2.3-0.9,4.4-2.5,6c-3.1,3.1-8.1,3.4-11.5,0.5l-38.1,38.1v4.7H104.1z M100,690.7h2.7v-2.7H100
			V690.7z M142.8,638c-2.8,2.8-2.8,7.2,0,9.9c2.8,2.8,7.2,2.8,10,0c1.3-1.3,2.1-3.1,2.1-5c0-1.9-0.7-3.7-2.1-5
			c-1.3-1.3-3.1-2.1-5-2.1S144.2,636.6,142.8,638L142.8,638z M173.3,596.2c-2.8,2.8-4.4,6.6-4.4,10.5c0,3.9,1.5,7.8,4.4,10.5
			c2.8,2.8,6.6,4.4,10.5,4.4c4.1,0,7.8-1.5,10.5-4.4c2.8-2.8,4.4-6.6,4.4-10.5c0-4-1.5-7.8-4.4-10.5c-2.8-2.8-6.6-4.4-10.5-4.4
			S176.2,593.3,173.3,596.2L173.3,596.2z M196.1,691.7c-4.7,0-8.6-3.8-8.6-8.6c0-4.7,3.8-8.6,8.6-8.6c4.7,0,8.6,3.8,8.6,8.6
			S200.8,691.7,196.1,691.7z M196.1,676c-3.9,0-7.1,3.1-7.1,7.1c0,3.9,3.1,7.1,7.1,7.1c3.9,0,7.1-3.1,7.1-7.1S199.9,676,196.1,676z
			 M41.5,688.2l-4-4l3.2-3.2v-51c-4.4-0.3-7.8-4-7.8-8.4c0-4.5,3.5-8.1,7.8-8.4v-29C32,583.6,25,576.3,25,567.5
			c0-9,7.4-16.4,16.4-16.4s16.4,7.4,16.4,16.4c0,8.8-6.9,16.1-15.7,16.4v29c4.4,0.3,7.8,4,7.8,8.4s-3.5,8.1-7.8,8.4v51l3.2,3.2
			L41.5,688.2z M39.7,684.1l1.9,1.9l1.9-1.9l-1.9-1.9L39.7,684.1z M41.5,614.4c-3.9,0-7.1,3.1-7.1,7.1c0,3.9,3.1,7.1,7.1,7.1
			s7.1-3.1,7.1-7.1S45.5,614.4,41.5,614.4z M41.5,552.4c-8.2,0-14.9,6.7-14.9,14.9s6.7,14.9,14.9,14.9s14.9-6.7,14.9-14.9
			C56.6,559.1,49.9,552.4,41.5,552.4z M544.7,675.3H409.3V649l0.9,0.1c4.3,0.8,8.6,1.2,12.8,1.2c19.2,0,37-7.6,50.2-21.5l0.1-0.1
			c1.5-1.5,2.9-3.2,4.3-4.9l0.6-0.7l0.6,0.7c1.4,1.5,2.9,3,4.5,4.6c16.7,15.8,38.4,24.6,61.4,24.6c4.7,0,9.5-0.3,14.3-1.2l0.6-0.1
			l0.2,0.6c0.7,2.1,1.5,4.2,2.2,6.2l-0.7,0.2l0,0l0.7-0.2c1.7,4.5,3.6,9,5.6,13.3l0.3,0.8l-0.9,0.2
			C559.8,674.5,552.3,675.3,544.7,675.3z M410.9,673.8h133.9c7.1,0,14.2-0.7,21.2-2.1c-1.9-3.9-3.5-8-5-12
			c-5.3,0.9-10.8,1.4-16.2,1.4c-25,0-48.7-9.5-66.8-26.6c-1.4-1.3-2.8-2.7-4-4c-13.4,13.8-31.5,21.4-50.8,21.4c-4,0-8.1-0.3-12.3-1
			L410.9,673.8L410.9,673.8z M474.9,629.3c1.3,1.4,2.7,2.8,4,4c17.8,16.9,41.2,26.3,65.8,26.3c5.2,0,10.5-0.5,15.6-1.3
			c-0.6-1.6-1.2-3.2-1.7-4.9c-4.6,0.7-9.3,1-13.9,1c-23.4,0-45.5-8.9-62.5-25c-1.5-1.4-2.8-2.8-4-4C477.2,626.8,476,628,474.9,629.3
			z M684.9,673.5l-0.6-0.3c-26-17.7-41.7-47-41.7-78.3v-7.3c0-27.5-8.9-53.7-25.7-75.5l-0.3-0.6l4.7-4.7c-1.2-1.5-2.4-3-3.7-4.5
			l-0.5-0.6l13.3-13.3l0.6,0.6c1.4,1.6,2.9,3.4,4.3,5.1v0.1l0,0c15.2,19,25.7,41.5,30.2,65.4c1.9,7.8,7.6,12.5,15,12.5
			c8.4,0,15.3-6.8,15.3-15.3v-34.1h18.9v6.6h6.6v63.6c0,28.6-9,55.8-26,78.5l-0.3,0.6l-0.6-0.3c-1.9-1-3.5-2.1-5.1-3.1
			c-1.2,1.6-2.4,3.1-3.8,4.7L684.9,673.5z M618.6,511.7c16.8,22,25.6,48.2,25.6,76v7.3c0,30.7,15,59.2,40.4,76.7
			c1.2-1.4,2.2-2.7,3.2-4c-24.1-16.4-38.4-43.5-38.4-72.7v-7.3c0-29-9.4-56.6-27.1-79.6L618.6,511.7z M690,667.1
			c1.4,0.9,2.8,1.7,4.4,2.7c16.7-22.4,25.3-49.2,25.3-77.2v-62.1h-5.1v62.1C714.6,619.7,706.1,645.4,690,667.1z M650.9,594.8
			c0,28.6,14.1,55.3,37.8,71.4c16-21.4,24.4-46.9,24.4-73.6v-62.1h-15.9v26c0,9.3-7.5,16.8-16.8,16.8c-8.1,0-14.6-5.4-16.5-13.8
			c-4.4-23.3-14.6-45.5-29.4-64.1l-11.2,11.2c17.9,23.4,27.4,51.2,27.4,80.7L650.9,594.8z M697.3,529h15.9v-5.1h-15.9V529z
			 M619.2,501.7c1.2,1.3,2.2,2.7,3.2,3.9l11.2-11.2c-1-1.3-2.2-2.7-3.2-3.9L619.2,501.7z M102.1,665.5c-12.7-8.7-27.5-13.9-42.9-15
			l0.1-1.5c15.6,1.2,30.8,6.5,43.6,15.3L102.1,665.5z M53.1,665.2h-1.5v-31.6l0.2-0.2c3.5-3,5.4-7.4,5.4-12s-2-9-5.4-12l-0.2-0.2
			V602L73,580.8v-22.1h0.7c12.7-0.3,25.6,0.9,38,3.6l9-5.2l5.3,9.3c11.9,3.9,23.4,9.3,34.1,16l0.7,0.5l-33.6,50.1v14.2l3.2-3.2
			c-0.2-5,1.5-9.7,5.1-13.2c3.5-3.5,8.3-5.3,13.2-5.1l7.8-7.8l1,1l-8.2,8.2H149c-4.6-0.3-9.1,1.4-12.4,4.6s-5,7.8-4.6,12.4v0.3
			l-9.7,9.6l-1-1l4.5-4.4v-16.2l24.5-36.9c-21.6-13.4-46.6-20.5-72.3-20.5c-1.2,0-2.3,0-3.5,0v6.4l-21.4,21.4v5.7
			c3.7,3.2,5.8,8,5.8,13s-2.1,9.6-5.8,12.8V665.2z M78,573.5c25.9,0,51.3,7.2,73.1,20.7l7.4-11.1c-10.5-6.5-21.8-11.7-33.4-15.5
			l-0.3-0.1l-0.2-0.5l-4.5-7.9l-8.2,4.7l-0.2-0.1c-12.1-2.8-24.6-3.9-37.1-3.7v13.4C75.7,573.5,76.8,573.5,78,573.5z M388.7,661H388
			c-33.2,0-60.2-27.1-60.2-60.2c0-13.8,4.7-27.2,13.4-37.8l0.6-0.7l12.2,12.1v0.3c-0.2,2.2-0.2,4.2-0.2,6.1
			c0,24.6,13.3,47.7,34.7,60l0.3,0.2V661H388.7z M341.9,564.5c-8.1,10.3-12.6,23.1-12.6,36.3c0,32,25.9,58.3,57.9,58.7v-5.1
			c-29.2-0.5-52.9-24.4-52.9-53.7c0-11.9,3.8-23.3,11.1-32.6L341.9,564.5z M346.6,569.2c-6.9,9.1-10.6,20-10.6,31.6
			c0,28.5,22.9,51.7,51.4,52.2V642c-21.6-12.7-35.1-36.1-35.1-61.2c0-1.9,0.1-3.8,0.2-5.9L346.6,569.2z M113.4,654.2
			c-15.9-11.6-34.6-18.3-54.3-19.6l0.1-1.5c19.9,1.3,38.9,8.1,55,19.8L113.4,654.2z M285.8,640.2l-0.2-0.7c-0.7-1.9-1.4-3.7-2.1-5.6
			l-6.1,2.2l-0.2-0.7c-7.2-18.7-17.1-36.4-29.4-52.5l-0.3-0.5l4.6-4.6c-1.2-1.5-2.4-3.1-3.7-4.6l-0.5-0.6l52.1-52.1l4.6,4.6l4.6-4.6
			l23,23l-0.6,0.6c-1.4,1.4-2.9,3-4.4,4.7l0,0c-12.4,14.5-19.2,33-19.2,51.9c0,7.6,1,15.2,3.2,22.4l0,0c0.6,2.1,1.4,4.3,2.1,6.2
			l0.2,0.7L285.8,640.2z M285,633.4c0.6,1.6,1.2,3.2,1.7,4.9l25-9c-0.6-1.6-1.2-3.2-1.6-5L285,633.4z M249.4,582.5
			c12,15.8,21.8,33.3,28.9,51.7l4.7-1.7c-7.4-19.2-17.5-37.3-30.1-53.7L249.4,582.5z M254,577.8c12.7,16.5,22.9,34.8,30.4,54.1
			l25.2-9c-2.1-7.3-3.1-14.7-3.1-22.2c0-19.2,6.8-37.7,19.1-52.4l-21.2-21.2L254,577.8z M249.9,572.6c1,1.3,2.1,2.7,3.1,3.9
			l50.5-50.4l-3.6-3.6L249.9,572.6z M305.7,526.2l21.1,21.1c1.2-1.3,2.3-2.5,3.4-3.7l-20.9-20.9L305.7,526.2z M544.7,629.8
			c-19.2,0-37.4-8.3-49.9-22.9l0,0c-10.2-11.9-15.9-27.1-15.9-42.7c0-9.5,2-18.6,5.9-27.2c-8.1-11.3-19-20.1-31.6-25.7
			c-29.5-12.4-54.8-33.7-72.2-60.4l0,0l-0.5-0.8c-0.7-1.2-1.4-2.3-2.1-3.5c-0.5-0.8-0.9-1.6-1.5-2.4l0,0l-0.2-0.5l20.3-20.2l0.5,0.9
			c1,2,2.1,3.9,3.2,5.9v0.1c23.6,40.6,67.3,65.7,114.1,65.7h3.4c16.1,0,31.8,4.3,45.7,12.3l0.8,0.5l-6,6c3.7,1,7.2,2.5,10.5,4.4
			l0.9,0.5L550,539.9l-0.3-0.1c-1.6-0.3-3.4-0.5-5-0.5c-13.7,0-24.8,11.1-24.8,24.8c0,3,0.6,5.9,1.5,8.7h13.9V587
			c3,1.2,6,1.9,9.3,1.9c13.7,0,24.8-11.1,24.8-24.8c0-1.7-0.1-3.4-0.5-5l-0.1-0.3l20.1-20.1l0.5,0.9c1.9,3.4,3.4,6.9,4.4,10.5l0,0
			l0,0l5.2-5.2l0.5,0.9c5.1,9.8,8.3,20.4,9.6,31.4l-1.5,0.1c-1.2-10.4-4.2-20.5-8.9-30l-4.4,4.4c1,4,1.5,8.2,1.5,12.4
			c0,28.1-22.9,51-51,51c-10.2,0-20.1-3-28.6-8.7l0,0c-6.9-4.7-12.7-11.1-16.7-18.5l0,0c-3.8-7.3-5.9-15.5-5.9-23.8
			c0-28.1,22.9-51,51-51c4.2,0,8.3,0.5,12.4,1.5l5.2-5.2c-13.4-7.6-28.7-11.6-44.1-11.6h-3.4c-47,0-91-25.1-115-65.7l-11.5,11.5l0,0
			l-6.4,6.4c17.2,26.6,42.5,47.8,71.7,60.2c13.1,5.7,24.3,14.8,32.5,26.5l0.2,0.3l-0.2,0.3c-3.9,8.4-5.9,17.6-5.9,27
			c0,15.3,5.4,30.1,15.5,41.8l0,0c12.3,14.2,30,22.4,48.7,22.4c16.7,0,32.4-6.4,44.4-17.8l19-19c0-0.7,0.1-2.8,0.1-3.8
			c0-3.5-0.2-6.9-0.6-10.3l1.5-0.1c0.3,3.5,0.6,7.1,0.6,10.5c0,1.4-0.1,4.2-0.1,4.2v0.3l-19.4,19.4
			C577.9,623.3,561.8,629.8,544.7,629.8z M519.5,606.7c7.6,4.5,16.2,6.8,25.1,6.8c27.3,0,49.5-22.2,49.5-49.5
			c0-3.8-0.5-7.5-1.3-11.2l-15.7,15.7c-2.3,16.1-16.2,28.2-32.5,28.2c-3.5,0-6.9-0.6-10.3-1.6l-0.5-0.1V588c-1.5-0.7-3-1.5-4.4-2.5
			l-0.3-0.2V579H523l-0.2-0.3c-0.9-1.4-1.7-2.9-2.4-4.4h-7.1l-0.1-0.6c-0.9-3.1-1.4-6.4-1.4-9.6c0-16.3,12.1-30.2,28.2-32.5
			l15.7-15.7c-3.7-0.8-7.4-1.3-11.2-1.3c-27.3,0-49.5,22.2-49.5,49.5c0,9.6,2.8,18.9,7.9,26.8l0,0
			C507.2,597.4,512.8,602.8,519.5,606.7L519.5,606.7z M535.4,594c3,0.9,6.1,1.4,9.3,1.4c15.6,0,28.9-11.7,31-27.2l0,0
			c0.2-1.4,0.2-2.8,0.2-4.2c0-3.1-0.5-6.1-1.4-9.1l-4.2,4.2c0.3,1.6,0.5,3.2,0.5,5c0,14.5-11.8,26.3-26.3,26.3
			c-3.2,0-6.4-0.6-9.3-1.7v5.4H535.4z M530.8,584.5c1,0.7,2.1,1.3,3.2,1.9v-12.1h-11.8c0.5,1.2,1.2,2.2,1.7,3.2h6.8V584.5
			L530.8,584.5z M514.6,572.7h5.3c-0.9-2.8-1.5-5.7-1.5-8.7c0-14.5,11.8-26.3,26.3-26.3c1.6,0,3.2,0.1,4.9,0.5l4.2-4.2
			c-4.2-1.3-8.6-1.7-13.2-1h-0.1c-15.5,2.1-27.2,15.4-27.2,31.1C513.4,567,513.8,570,514.6,572.7z M575.9,553.8
			c1.2,3.4,1.6,6.8,1.6,10.3c0,0.7,0,1.5-0.1,2.2l15.2-15.2c-0.9-3.5-2.3-6.9-3.9-10.2L575.9,553.8z M544.7,531.2
			c3.5,0,6.9,0.6,10.3,1.6l12.7-12.7c-3.2-1.7-6.6-3-10.2-3.9l-15.2,15.2C543.3,531.2,544,531.2,544.7,531.2z M379.7,445.9
			c0.6,0.8,1,1.7,1.6,2.5l17.8-17.8c-0.9-1.5-1.7-3.1-2.5-4.6L378.6,444C379,444.7,379.3,445.3,379.7,445.9z M423,626.2
			c-4.6,0-9.1-0.7-13.5-2.1V624h-0.6v-8h0.7c10.9-0.6,19.4-9.6,19.4-20.6c0-2.1-0.3-4.2-0.9-6.1h-13.5v-13.5c-2-0.6-4.1-0.9-6.1-0.9
			c-11,0-20,8.6-20.6,19.6v0.7h-8v-0.6h-0.1c-1.4-4.4-2.1-8.9-2.1-13.5c0-25,20.4-45.3,45.4-45.3c10.1,0,19.6,3.2,27.5,9.4l0.3,0.2
			l-0.1,0.5c-1.2,6-1.7,12.3-1.7,18.4c0,15.2,3.5,29.7,10.3,43.2l0.2,0.5l-0.2,0.3C450.7,619.6,437.5,626.2,423,626.2z M413.3,623.6
			c3.1,0.7,6.4,1,9.7,1c13.8,0,26.5-6.2,34.8-17.2c-6.8-13.5-10.3-28.2-10.3-43.5c0-6.1,0.6-12.3,1.7-18.3
			c-7.6-5.8-16.7-8.8-26.3-8.8c-24.2,0-43.9,19.7-43.9,43.8c0,3.2,0.3,6.5,1,9.7c2.3-13.7,14-23.8,28.2-23.8c2.4,0,4.7,0.3,7.1,0.9
			l0.6,0.1v6.8c1.5,0.6,3,1.3,4.4,2.2l0.3,0.2v6h6l0.2,0.3c0.9,1.4,1.6,2.9,2.2,4.4h6.8l0.1,0.6c0.6,2.3,0.9,4.6,0.9,7.1
			C437.2,609.6,427,621.3,413.3,623.6z M410.5,617.4v5.1c14.2-1,25.2-12.7,25.2-27.1c0-2.1-0.2-4.2-0.7-6.1h-5.2
			c0.6,2,0.9,4,0.9,6.1C430.7,606.9,421.9,616.5,410.5,617.4z M381.5,593.6h5.1c0.9-11.5,10.5-20.2,22-20.2c2.1,0,4.2,0.3,6.1,0.9
			V569c-2-0.5-4.1-0.7-6.1-0.7C394.2,568.2,382.4,579.3,381.5,593.6z M416.2,587.8h11.6c-0.5-1.2-1-2.2-1.6-3.2h-6.7v-6.7
			c-1-0.6-2.1-1.2-3.2-1.6L416.2,587.8L416.2,587.8z M107.8,603.7c-4.7,0-8.6-3.8-8.6-8.6c0-4.7,3.8-8.6,8.6-8.6s8.6,3.8,8.6,8.6
			C116.4,599.9,112.6,603.7,107.8,603.7z M107.8,588.1c-3.9,0-7.1,3.1-7.1,7.1s3.1,7.1,7.1,7.1s7.1-3.1,7.1-7.1
			S111.8,588.1,107.8,588.1z M360.2,551.5l-41-41l4.6-4.6l-4.6-4.6l39.5-39.4l0.5,0.8c1.2,1.9,2.4,3.7,3.7,5.6l0,0
			c9.6,14,21.2,26.6,34.3,37.6l0,0c0.7,0.6,1.5,1.3,2.2,1.9c2.1,1.7,4.3,3.4,6.4,4.9l1.3,0.9l-1.5,0.3
			c-17.4,4.5-32.1,15.5-41.5,30.9l0,0c-1.2,1.9-2.2,3.8-3.2,5.9L360.2,551.5z M321.4,510.5l38.4,38.4c0.8-1.5,1.6-3.1,2.5-4.5
			L325,507L321.4,510.5z M326,505.9l37.1,37.1c9.4-14.8,23.6-25.5,40.4-30.3c-1.7-1.3-3.5-2.7-5.1-4c-0.8-0.7-1.6-1.3-2.4-2l0,0
			c-13-10.8-24.3-23.3-33.9-37L326,505.9z M321.3,501.2l3.6,3.6l36.3-36.3c-0.9-1.4-2-2.9-2.9-4.3L321.3,501.2z M721.2,501.8h-8.1
			V380.4h-23.4l0.2-0.9c0.6-2.1,1.2-4.3,1.6-6.5l0.1-0.6h22.8v6.6h6.6v122.9H721.2z M714.6,500.3h5.1v-120h-5.1V500.3z M691.7,378.8
			h21.4v-5.1H693C692.7,375.5,692.2,377.2,691.7,378.8z M498.1,461.8l-0.9-0.1c-31.7-5.7-58.8-26.7-72.3-56.1l-0.2-0.5l5.1-5.1
			c-0.9-2.1-1.7-4.2-2.4-6.2l-0.1-0.5l20-20l0.2,1.4c0.5,2.4,1.2,4.9,1.9,7.3v0.1c7.2,21.9,25.6,38.4,48,43l0,0
			c2.2,0.5,4.4,0.8,6.5,1l0.7,0.1v29.8l-0.6-0.2c-2-0.2-3.8-0.5-5.8-0.8V461.8z M426.5,405.3c13.3,28.5,39.5,48.8,70.1,54.6v-5.2
			c-29.4-5.9-54-25.7-66.3-53.2L426.5,405.3z M498.1,453.5c1.7,0.3,3.4,0.6,5.1,0.8v-26.8c-1.7-0.2-3.4-0.5-5.1-0.8V453.5z
			 M431.6,400.4c11.8,27.3,36.1,47,65.1,52.9v-26.8c-22.4-4.9-40.7-21.2-48.3-42.9L431.6,400.4z M428.9,393.7c0.6,1.7,1.3,3.5,2,5.2
			l17-17c-0.6-1.9-1-3.7-1.5-5.7L428.9,393.7z M510.8,398.9c-20.4,0-36.9-16.5-36.9-36.9c0-2.1,0.2-4.3,0.6-6.4l0,0
			c1.3-7.5,4.9-14.3,10.3-19.7l32.5-32.5h0.3c5,0.6,9.8,1.9,14.6,3.6c5.6,2.2,10.8,5.1,15.4,8.9l0.6,0.5l-0.5,0.6
			c-1.2,1.5-2.2,3-3.1,4.5c1.5,1.3,3.1,2.8,4.5,4.2l0.3,0.3l-0.2,0.5c-1.2,2-2.2,4.2-3,6.4l-1.4-0.6c0.8-2.1,1.7-4,2.8-6
			c-1.2-1.3-2.4-2.4-3.8-3.6c-0.9,1.6-1.9,3.4-2.7,5.1l-0.7-0.3l0.7,0.3c-1.4,3.1-2.5,6.2-3.4,9.5l-0.9-0.2l0.9,0.2
			c-1.2,4.4-1.6,8.9-1.6,13.5c0,9.1,2.3,18.3,6.6,26.4c1-2.1,1.9-4.4,2.4-6.7c-2.7-6.2-3.9-12.8-3.9-19.7c0-2.1,0.1-4.3,0.5-6.6
			l0.7,0.1l-0.7-0.1c0.6-4,1.6-8.1,3.1-12l1.4,0.6c-1.5,3.8-2.5,7.8-3,11.6l0,0c-0.2,2.2-0.5,4.3-0.5,6.4c0,6.7,1.3,13.2,3.9,19.3
			l0.1,0.2v0.2c-0.7,2.8-1.7,5.6-3,8.2l0,0l-0.1,0.3c0,0,0,0,0,0.1l-0.7,1.2l0,0C536.1,391.8,523.9,398.9,510.8,398.9z M475.1,355.7
			l0.8,0.1c-0.3,2.1-0.6,4.2-0.6,6.1c0,19.6,15.9,35.4,35.4,35.4c13.1,0,24.9-7.1,31.1-18.5c-4.7-8.6-7.3-18.2-7.3-27.9
			c0-4.6,0.6-9.4,1.7-13.9l0,0c0.8-3.2,2-6.6,3.4-9.7l0,0l0,0l0,0c0.8-2,1.9-3.7,2.8-5.4c-4.7-3.8-10.2-6.7-15.9-8.6
			c-4.7-1.5-9.7-2.4-14.7-2.5L485.8,337c-5.2,5.2-8.7,11.7-10,19L475.1,355.7z M513.3,309.3c4.7,0.2,9.3,1,13.8,2.5
			c5.9,2,11.3,4.9,16.2,8.7l0,0l0,0c0.8-1.3,1.7-2.7,2.7-3.9c-4.4-3.5-9.3-6.1-14.5-8.2c-4.4-1.7-9.1-2.9-13.9-3.5L513.3,309.3z
			 M641.3,380.8l-0.7-0.5c-1.9-1.2-3.7-2.3-5.7-3.2l-0.7-0.3l0.5-0.7c4.5-7.6,6.9-16.3,6.9-25.1c0-27.3-22.2-49.4-49.4-49.4
			c-6.8,0-13.4,1.4-19.7,4.2l-0.5,0.2l-0.3-0.3c-1.7-1.7-3.5-3.2-5.2-4.7l0,0c-6.7-5.6-14.2-10.1-22.3-13.4
			c-2.2-0.9-4.5-1.7-6.7-2.4l-1.2-0.3l33.6-33.5l0.6,0.5c1.7,1.4,3.4,2.8,5.1,4l0.7,0.5l-30.7,30.2c7.6,3.2,14.8,7.6,21.2,12.8
			c7.9-3.8,16.4-5.8,25.2-5.8c31.7,0,57.5,25.8,57.5,57.5c0,10.3-2.8,20.4-8,29.2L641.3,380.8z M636.3,376.2c1.5,0.8,3,1.6,4.4,2.5
			c4.9-8.4,7.4-18,7.4-27.8c0-30.9-25.1-56-56-56c-8.4,0-16.4,1.9-24,5.3c1.4,1.2,2.8,2.4,4.2,3.8c6.4-2.7,13-4,19.8-4
			c28.1,0,50.9,22.8,50.9,50.9C643,359.8,640.7,368.4,636.3,376.2z M566.8,300.3L566.8,300.3L566.8,300.3z M544.3,286.6l-0.1,0.2
			L544.3,286.6z M538.9,283.8c1.7,0.6,3.5,1.3,5.2,2l29.6-29.6c-1.4-1-2.7-2.1-3.9-3.1L538.9,283.8z M714.6,358.3h-20.8v-0.8
			c0.1-2.2,0.2-4.4,0.2-6.5c0-20.8-6.2-41-18.2-58l-1-1.4l1.7,0.2c12.3,1.9,24.9,2.7,37.1,2.3h0.8v6.6c2,0,3.8-0.1,5.8-0.2h0.8v51.4
			h-6.6v6.4H714.6z M695.4,356.8h17.7v-5.1h-17.6C695.6,353.3,695.6,355,695.4,356.8z M714.6,350.2h5.1v-48.4
			c-1.7,0.1-3.4,0.1-5.1,0.2V350.2z M695.6,350.2h17.6V302c-10.2,0.2-20.5-0.2-30.5-1.5C691,315.8,695.4,332.7,695.6,350.2z
			 M681.7,299c10.4,1.3,21.1,1.9,31.5,1.6v-5.1c-11.6,0.2-23.4-0.5-34.9-2.1C679.4,295.3,680.5,297.2,681.7,299z M735.1,266.2
			l-0.5-0.1c-8.3-2.3-15.6-7.2-21.2-13.9c-14.2,0.3-28.6-1.2-42.5-4.4l-8.3,4.7l-4.7-8.3c-13.8-4.4-26.8-10.4-38.9-18
			c-11.2,3.8-24.1,2.8-34.5-3l-0.3-0.2v-7.8c-3.2-2.3-6-5.1-8.4-8.4H568l-0.2-0.3c-3.5-6.2-5.3-13.4-5.3-20.6
			c0-4.7,0.8-9.4,2.3-13.8c-7.6-12.1-13.7-25.2-18.1-38.9l-8.3-4.7l4.7-8.2c-3-12.7-4.5-25.9-4.5-39c0-1.2,0-2.4,0-3.6
			c-6.7-5.6-11.5-12.8-13.9-21.2l-0.1-0.5l5.4-5.4c-0.3-2-0.5-3.9-0.5-5.8c0-2.1,0.2-4.2,0.6-6.2l0.2-1.4l7.6,7.6l-6.4,6.4
			c1.2,6.4,4.2,12.4,8.6,17.1l0.2,0.2v0.3c-0.2,2.7-0.3,5.4-0.3,8.1c2,1.5,3.9,2.9,6.1,4l0.5,0.1v0.5c0,9.9,1,20.1,2.9,30.1v0.2
			l-9.1,16l16.1,9.3l0.1,0.2c3.5,9.5,7.9,18.6,13,27.2l0.2,0.3l-0.2,0.3c-1.3,2.1-2.3,4.4-3.1,6.7c1.5,2.3,3,4.6,4.5,6.8l0.2,0.2
			l-0.1,0.3c-0.5,2.2-0.6,4.4-0.6,6.6c0,7.1,2.1,13.8,6,19.6h9.1v9.1c7.5,5.2,16.9,7.2,26.2,5.4l0.3-0.1l0.2,0.2
			c2.2,1.5,4.5,3.1,6.8,4.5c2.3-0.8,4.5-1.9,6.7-3.1l0.3-0.2l0.3,0.2c8.6,5.1,17.7,9.5,27.2,13l0.2,0.1l9.3,16.1l16-9.1h0.2
			c10,1.9,20,2.8,30,2.9h0.5l0.2,0.3c1.2,2.1,2.5,4.2,4,6c2.7-0.1,5.3-0.2,8.1-0.3h0.3l0.2,0.2c4.9,4.4,10.8,7.4,17.1,8.6l6.4-6.4
			l7.6,7.6l-1.4,0.2c-4,0.7-8,0.7-12,0.1L735.1,266.2z M715.5,252.2c5.1,5.9,11.8,10.1,19.2,12.4l4.2-4.2
			c-6.2-1.3-11.9-4.3-16.7-8.6C720,252.1,717.7,252.2,715.5,252.2z M742,259.5c3,0.3,6,0.3,9,0l-4.5-4.5L742,259.5z M673,246.7
			c13,2.9,26.3,4.3,39.5,4c-1.2-1.6-2.3-3.2-3.2-5c-9.8,0-19.8-1-29.6-2.8L673,246.7z M620.8,225.6c11.2,6.9,23.4,12.6,36.1,16.8
			l-3.8-6.7c-9.4-3.5-18.3-7.8-26.8-12.7C624.5,223.9,622.7,224.8,620.8,225.6z M585.7,222.1c9.6,5.2,21.3,6.4,31.7,3.1
			c-1.9-1.3-3.8-2.5-5.6-3.8c-9.1,1.6-18.4-0.2-26-5.1l0,0l0,0L585.7,222.1z M577.8,206.8c1.9,2.4,4,4.6,6.5,6.5v-6.5H577.8z
			 M569.1,205.3h5.8c-3.7-5.8-5.8-12.5-5.8-19.6c0-2.2,0.2-4.4,0.6-6.6c-1.3-1.9-2.5-3.7-3.8-5.6c-1.3,3.9-1.9,8-1.9,12.1
			C564.1,192.6,565.8,199.4,569.1,205.3z M548.8,134.2c4.2,12.6,9.8,24.8,16.8,36c0.7-1.9,1.6-3.7,2.5-5.4
			c-5-8.4-9.3-17.5-12.7-26.7L548.8,134.2z M540.3,78.6c0,0.8,0,1.6,0,2.4c0,12.4,1.4,24.9,4,37l3.8-6.6c-1.9-9.8-2.8-19.8-2.8-29.6
			C543.6,81,541.9,79.9,540.3,78.6z M526.5,56.3c2.2,7.5,6.5,14.1,12.3,19.2c0.1-2.2,0.2-4.4,0.3-6.7c-4.3-4.7-7.2-10.4-8.6-16.7
			L526.5,56.3z M531.6,40.1c-0.2,1.5-0.3,3-0.3,4.5c0,1.5,0.1,3,0.3,4.5l4.5-4.5L531.6,40.1z M746.5,242.9c-9,0-16.4-7.4-16.4-16.4
			c0-8.8,6.9-16.1,15.7-16.4v-29c-4.4-0.3-7.8-4-7.8-8.4s3.5-8.1,7.8-8.4v-51l-3.2-3.2l4-4l4,4l-3.2,3.2v51c4.4,0.3,7.8,4,7.8,8.4
			c0,4.5-3.5,8.1-7.8,8.4v29c8.7,0.3,15.7,7.6,15.7,16.4l0,0l0,0c0,4.4-1.7,8.6-4.9,11.7C754.9,241.2,750.9,242.9,746.5,242.9z
			 M746.5,211.5c-8.2,0-14.9,6.7-14.9,14.9c0,8.2,6.7,14.9,14.9,14.9c4,0,7.8-1.5,10.5-4.4c2.8-2.8,4.4-6.6,4.4-10.5l0,0
			C761.4,218.2,754.7,211.5,746.5,211.5z M746.5,165.4c-3.9,0-7.1,3.1-7.1,7.1c0,3.9,3.1,7.1,7.1,7.1c3.9,0,7.1-3.1,7.1-7.1
			C753.5,168.5,750.3,165.4,746.5,165.4z M744.5,109.7l1.9,1.9l1.9-1.9l-1.9-1.9L744.5,109.7z M710,220.2
			c-26.2,0-51.6-7.3-73.7-21.1l0.8-1.3c21.9,13.7,47,20.8,72.9,20.8c1.4,0,2.8,0,4.3-0.1v1.5C712.9,220.2,711.4,220.2,710,220.2z
			 M680.2,207.2c-4.7,0-8.6-3.8-8.6-8.6c0-4.7,3.8-8.6,8.6-8.6c2.3,0,4.4,0.9,6,2.5c1.6,1.6,2.5,3.8,2.5,6
			C688.7,203.4,684.9,207.2,680.2,207.2z M680.2,191.6c-3.9,0-7.1,3.1-7.1,7.1c0,3.9,3.1,7.1,7.1,7.1s7.1-3.1,7.1-7.1
			c0-1.9-0.7-3.7-2.1-5C683.9,192.4,682,191.6,680.2,191.6z M579.7,163.6l-0.5-0.7c-6.7-10.6-12-22.1-15.9-34l-9-5.1l5.2-9
			c-2.4-11-3.7-22.3-3.7-33.7c0-1.4,0-2.9,0-4.3v-0.7h22l21.4-21.3h7.1l0.2,0.2c3,3.5,7.4,5.4,12,5.4c4.6,0,9-2,12-5.4l0.2-0.2h31.9
			v1.5h-31.2c-3.2,3.7-8,5.8-12.8,5.8c-5,0-9.6-2.1-13-5.8h-5.7l-21.5,21.3h-6.2c0,1.2,0,2.3,0,3.5c0,25.6,7.1,50.4,20.4,72.1
			l36.9-24.4h16.3l4.4-4.4l1,1l-9.7,9.7h-0.3c-4.6-0.3-9.1,1.4-12.4,4.6c-3.2,3.2-5,7.8-4.6,12.4v0.3l-8.2,8.2l-1-1l7.8-7.8
			c-0.2-4.9,1.6-9.7,5.1-13.2c3.5-3.5,8.3-5.3,13.2-5.1l3.4-3.4h-14.3L579.7,163.6z M556.5,123.2l8.2,4.6l0.1,0.2
			c3.8,11.7,8.9,22.8,15.4,33.3l11.2-7.4c-13.4-21.9-20.6-47.1-20.6-72.9c0-1.2,0-2.3,0-3.5h-13.4c0,1.2,0,2.3,0,3.5
			c0,11.3,1.3,22.7,3.7,33.7l0.1,0.2L556.5,123.2z M728.8,160.7c-19.9-1.3-38.9-8.1-55-19.8l0.9-1.2c15.9,11.6,34.6,18.3,54.3,19.6
			L728.8,160.7z M728.8,144.8c-15.6-1.2-30.8-6.5-43.6-15.3l0.8-1.3c12.7,8.7,27.5,13.9,42.9,15L728.8,144.8z M591.9,119.3
			c-4.7,0-8.6-3.8-8.6-8.6s3.8-8.6,8.6-8.6c4.7,0,8.6,3.8,8.6,8.6S596.6,119.3,591.9,119.3z M591.9,103.6c-3.9,0-7.1,3.1-7.1,7.1
			s3.1,7.1,7.1,7.1c3.9,0,7.1-3.1,7.1-7.1S595.8,103.6,591.9,103.6z M650.3,117.4c-11.7-16.1-18.5-35.2-19.8-55l1.5-0.1
			c1.3,19.6,8,38.3,19.6,54.3L650.3,117.4z M714.2,111.5c-4.7,0-8.6-3.8-8.6-8.6s3.8-8.6,8.6-8.6c4.7,0,8.6,3.8,8.6,8.6
			C722.7,107.6,718.9,111.5,714.2,111.5z M714.2,95.9c-3.9,0-7.1,3.1-7.1,7.1c0,3.9,3.1,7.1,7.1,7.1c3.9,0,7.1-3.1,7.1-7.1
			C721.2,99,718.1,95.9,714.2,95.9z M661.6,106.1c-8.8-13-14.1-28-15.3-43.6l1.5-0.1c1.2,15.4,6.4,30.2,15,42.9L661.6,106.1z
			 M723.9,89.1c-4.5,0-8.8-1.4-12.5-3.9l-0.3-0.2V80h-4.9l-0.2-0.3c-2.5-3.7-3.9-8-3.9-12.5s1.4-8.8,3.9-12.5l0.2-0.3h4.9v-4.9
			l0.3-0.2c3.7-2.5,8-3.9,12.5-3.9c4.5,0,8.8,1.4,12.5,3.9l0.3,0.2v4.9h4.9l0.2,0.3c2.5,3.7,3.9,8,3.9,12.5c0,4.5-1.4,8.8-3.9,12.5
			l-0.2,0.3h-4.9v4.9l-0.3,0.2C732.7,87.7,728.4,89.1,723.9,89.1z M712.6,84.1c3.4,2.3,7.3,3.5,11.3,3.5c4,0,7.9-1.2,11.2-3.5v-3.4
			c-3,2.5-6.9,4-11.2,4c-4.3,0-8.2-1.5-11.3-4.2V84.1z M712.6,78.6c2.9,2.9,6.9,4.6,11.3,4.6c4.4,0,8.3-1.7,11.2-4.6v-0.2h0.2
			c2.9-2.9,4.6-6.9,4.6-11.3c0-4.4-1.7-8.3-4.6-11.3H735v-0.1c-2.9-2.8-6.9-4.6-11.2-4.6c-4.4,0-8.4,1.7-11.3,4.6v0.2h-0.2
			c-2.9,2.9-4.6,6.9-4.6,11.3c0,4.4,1.7,8.4,4.6,11.3h0.2v0.1H712.6z M737.6,78.5h3.4c2.3-3.4,3.5-7.3,3.5-11.3s-1.2-8-3.5-11.3
			h-3.4c2.5,3.1,4,7.1,4,11.3S740.1,75.4,737.6,78.5z M707,78.5h3.4c-2.5-3.1-4.1-7.1-4.1-11.3c0-4.3,1.5-8.2,4.1-11.3H707
			c-2.2,3.4-3.5,7.3-3.5,11.3C703.7,71.2,704.8,75.2,707,78.5z M712.6,50.3v3.4c3.1-2.5,7.1-4.2,11.3-4.2c4.3,0,8.2,1.5,11.2,4v-3.4
			c-3.4-2.2-7.3-3.5-11.2-3.5C719.9,46.8,715.9,48.1,712.6,50.3z M688.1,85.5c-4.7,0-8.6-3.8-8.6-8.6s3.8-8.6,8.6-8.6
			s8.6,3.8,8.6,8.6C696.8,81.7,692.9,85.5,688.1,85.5z M688.1,69.9c-3.9,0-7.1,3.1-7.1,7.1s3.1,7.1,7.1,7.1c3.9,0,7.1-3.1,7.1-7.1
			C695.3,73.1,692.1,69.9,688.1,69.9z M723.9,77.7c-5.8,0-10.5-4.7-10.5-10.5s4.7-10.5,10.5-10.5c5.8,0,10.5,4.7,10.5,10.5
			C734.4,73,729.7,77.7,723.9,77.7z M723.9,58.2c-5,0-9,4-9,9c0,5,4.1,9,9,9c5,0,9-4,9-9C732.9,62.2,728.9,58.2,723.9,58.2z
			 M72.4,69.9h-1.5v-9.3l0.2-0.2c2.1-1.9,4.2-3.7,6.4-5.4V30.4l0.3-0.2C113.2,5.2,154.8-8,198.2-8H559l41.1,41.1h5.7
			c3.2-3.7,8-5.8,12.8-5.8c5,0,9.6,2.1,12.8,5.8h92.5l14.8-14.8c-0.1-0.2-0.1-0.3-0.2-0.6l0.6-0.2l-0.6,0.2
			c-1.6-4.9-2.5-9.9-2.8-15.2l1.5-0.1c0.2,5,1.2,9.8,2.7,14.6l3.9-3.9c-1.2-4.2-1.7-8.6-1.7-13.1c0-2.2,0.1-4.4,0.5-6.6l0.1-0.7
			h55.5v55.6l-0.7,0.1c-6.9,0.9-13.4,0.3-19.8-1.4l-3.9,3.9c4.7,1.6,9.7,2.5,14.7,2.8l-0.1,1.5c-5.3-0.2-10.5-1.3-15.5-3l0.2-0.6
			l-0.2,0.6c-0.1,0-0.2-0.1-0.2-0.1l-14.9,15l-1-1L771,51.6c-12.3-4.7-22.4-13.8-28.7-25.1l-7.8,7.8l0,0l-0.2,0.2H630.6l-0.2-0.2
			c-3-3.5-7.4-5.4-12-5.4c-4.6,0-9,2-12,5.4l-0.2,0.2h-6.9l-0.2-0.2L558.4-6.5H198.2C155.3-6.5,114,6.5,79,31.1v32.7h-1.5v-7.1
			c-1.7,1.4-3.4,2.9-5.1,4.4L72.4,69.9L72.4,69.9z M740.4,18.6c5.4,14.7,17.1,26.5,31.8,31.9l5-5.1l0.5,0.1
			c4.3,1.3,8.8,1.9,13.3,1.9c1.9,0,3.7-0.1,5.7-0.3V-5.7H744c-0.2,2-0.3,3.9-0.3,5.8c0,4.4,0.6,8.8,1.9,13.1l0.1,0.5L740.4,18.6z
			 M726.1,33.1h7.8l8-8c-0.9-1.7-1.7-3.6-2.4-5.3L726.1,33.1z M564.6,61.2c-9,0-16.4-7.4-16.4-16.4s7.4-16.4,16.4-16.4l0,0
			c8.8,0,16.1,6.9,16.4,15.7h29c0.3-4.4,4-7.8,8.4-7.8c4.4,0,8.1,3.5,8.4,7.8h51l3.2-3.2l4,4l-4,4l-3.2-3.2h-51
			c-0.3,4.4-4.1,7.8-8.4,7.8c-4.4,0-8.1-3.5-8.4-7.8h-29C580.5,54.1,573.4,61.2,564.6,61.2z M564.6,29.7c-8.2,0-14.9,6.7-14.9,14.9
			s6.7,14.9,14.9,14.9c8.2,0,14.9-6.7,14.9-14.9S572.8,29.7,564.6,29.7L564.6,29.7z M618.6,37.7c-3.9,0-7.1,3.1-7.1,7.1
			c0,3.9,3.1,7.1,7.1,7.1c3.9,0,7.1-3.1,7.1-7.1C625.5,40.8,622.4,37.7,618.6,37.7z M679.5,44.8l1.9,1.9l1.9-1.9l-1.9-1.9
			L679.5,44.8z"/>
	</g>
	<g>
		<path class="st0" d="M730.5,719.9h-9.4v-1.5h8.7c1.5-1.6,3-3.4,4.4-5.1h-7.1v-0.7l-0.6-0.5c16.7-19,28.9-40.8,36.5-64.8l0.1-0.2
			l7.9-4.4l-4.4-7.9l0.1-0.2c3.2-13.7,4.9-27.8,4.9-41.9V259.7c-4,2.9-8.4,5.1-13.3,6.5l-0.5,0.1l-6.7-6.7l1.4-0.2
			c7.3-1.3,14.1-5,19.2-10.3l1.3-1.4v9c1.9-1.6,3.6-3.4,5.2-5.3l1.3-1.6v342.9c0,17.1-2.3,34-6.7,50.2l0.2,0.5l-0.5,0.2
			c-6.9,24.9-18.9,48.1-35.2,68.4h22.6c24.6-35.1,37.6-76.2,37.6-119.2v-360l-41-41v-7.1l0.2-0.2c3.5-3,5.4-7.4,5.4-12
			c0-4.6-2-9-5.4-12l-0.2-0.2V56.7l8.7-8.7l1,1l-8.2,8.2v102.3c3.7,3.2,5.8,8,5.8,13c0,5-2.1,9.6-5.8,12.8v5.7l29.7,29.7V42.1
			c-20.7-1.6-37.3-18.2-38.8-38.9H568.5V1.7h181.9v0.7c1.2,20.6,17.6,37,38.1,38.3h0.7V222H789l10,9.9v360.6
			c0,43.4-13.2,85-38.1,120.4l-0.2,0.3h-24.5c-1.7,2.2-3.6,4.3-5.4,6.4L730.5,719.9z M728.8,711.8h6.6
			c16.3-19.9,28.4-42.9,35.3-67.3l-6.4,3.6C756.9,671.5,745,693,728.8,711.8z M768.1,634.5l3.6,6.4c4.2-15.6,6.2-31.8,6.2-48.4
			V253.8c-1.6,1.7-3.2,3.4-5.1,4.7v334.1C773,606.7,771.3,620.9,768.1,634.5z M754.1,260.4l4.2,4.2c4.9-1.4,9.4-3.7,13.3-6.7v-6.6
			C766.6,255.8,760.6,259,754.1,260.4z M208.5,543.5l-0.5-0.3c-17.2-13.2-36.3-23.6-56.7-31l-0.1-0.1
			c-23.6-15.3-37.6-41.2-37.6-69.2c0-16.8,5-32.9,14.5-46.6l0.6-0.9l0.6,0.8c5,6.8,11.1,12.7,18.2,17.2l0,0c1.9,1.2,3.7,2.3,5.7,3.2
			l0.7,0.3l-0.5,0.7c-4.5,7.6-6.9,16.3-6.9,25.1c0,27.3,22.2,49.4,49.4,49.4c6.8,0,13.4-1.4,19.7-4.2l0.5-0.2l0.3,0.3
			c1.7,1.7,3.5,3.2,5.2,4.7l0,0c6.7,5.6,14.2,10.1,22.3,13.4c2.2,0.9,4.5,1.7,6.7,2.4l1.2,0.3l-33.6,33.5l-0.6-0.5
			c-1.5-1.3-3-2.4-4.6-3.7L208.5,543.5z M151.9,510.7c20.3,7.3,39.2,17.7,56.5,30.8l3.6-3.6c-21.5-16.5-45.6-28.7-71.6-36.2
			C143.9,505.1,147.8,508.1,151.9,510.7z M214.3,537.7c1.4,1,2.7,2.1,3.9,3.1l30.9-30.9c-1.7-0.6-3.5-1.3-5.2-2L214.3,537.7z
			 M138.2,499.5c27.2,7.5,52.4,20,74.9,37.3l29.4-29.4c-7.6-3.2-14.8-7.6-21.2-12.8c-7.9,3.8-16.4,5.8-25.2,5.8
			c-31.7,0-57.5-25.8-57.5-57.5c0-10.1,2.7-19.9,7.6-28.6c-6.7-4.4-12.6-9.9-17.4-16.3c-8.9,13.3-13.7,28.8-13.7,45
			C115,464.3,123.5,484.6,138.2,499.5z M147.3,415.1c-4.9,8.4-7.4,18-7.4,27.8c0,30.9,25.1,56,56,56c8.4,0,16.4-1.9,24-5.3
			c-1.4-1.2-2.8-2.4-4.2-3.8c-6.4,2.7-13,4-19.8,4c-28.1,0-50.9-22.8-50.9-50.9c0-8.9,2.3-17.6,6.7-25.2
			C150.2,416.8,148.7,416,147.3,415.1z M221.2,493.5L221.2,493.5L221.2,493.5z M671,517.8l-0.2-0.5c-7.6-16.5-17.8-31.7-30.4-44.9
			l0,0c-3.9-4.2-6-9.5-6-15.2c0-12.1,9.8-22,22-22c12.2,0,22,9.8,22,22v60.5H671z M656.3,436.7c-11.3,0-20.5,9.1-20.5,20.5
			c0,5.3,2,10.3,5.7,14.1l0,0c12.5,13.3,22.8,28.3,30.4,44.9h4.9v-59C676.8,445.9,667.5,436.7,656.3,436.7z M714.6,508.4h-18.7
			v-51.1c0-17.1-10.9-32.2-27.1-37.6l-1-0.3l0.7-0.8c10-11.2,17.4-24.8,21.5-39l1.4,0.5c-4.2,14.1-11.5,27.5-21.2,38.8
			c16.2,5.9,27.1,21.3,27.1,38.6v43.2h17.2v7.9H714.6z M697.4,506.9h15.7v-5.1h-15.7V506.9z M113,502.3l-1.7-0.2
			c-12.3-1.9-24.9-2.5-37.1-2.3h-0.8v-6.6c-2,0-3.8,0.1-5.8,0.2h-0.8V442h6.6v-6.6h20.8v0.8c-0.1,2.2-0.2,4.4-0.2,6.5
			c0,20.8,6.2,41,18.2,58L113,502.3z M79.7,498.2c10.1,0,20.1,0.7,30.2,2.1c-1.3-1.9-2.4-3.7-3.5-5.6c-10.4-1.3-21.1-1.9-31.5-1.6
			v5.1C76.5,498.2,78.1,498.2,79.7,498.2z M79.7,491.6c8.6,0,17.2,0.5,25.8,1.5c-8.4-15.2-13-32-13.1-49.5H74.9v48.1
			C76.5,491.6,78.1,491.6,79.7,491.6z M68.4,443.6V492c1.9-0.1,3.5-0.1,5.1-0.2v-48.1L68.4,443.6L68.4,443.6z M74.9,442.1h17.6
			c0-1.6,0.1-3.4,0.1-5.1H74.9V442.1z M597.8,491.9l-0.6-0.5c-20.4-16.8-44.9-26.4-71.2-28.1h-0.7v-6.7c-2-0.1-3.9-0.1-5.8-0.2h-0.7
			v-30.5l0.7-0.1c20.8-2.8,39-15.6,48.6-34.4l0.2-0.5h36.7c17.9,0,34.3,10.6,41.4,27l0.3,0.8l-0.8,0.2c-5.7,1.6-11.1,4.5-15.6,8.4
			l-0.5-0.6l0.5,0.6c-1.6,1.5-3.2,3-4.6,4.7l-0.9,1.2l-0.3-1.4c-2.1-7.1-8.7-12-16-12c-2.7,0-5.2,0.6-7.5,1.7l3.6,12.8l-12.7,3.6
			c0.7,8.6,8,15.2,16.5,15.2c2.7,0,5.2-0.6,7.6-1.9l1.3-0.7l-0.2,1.4c-0.2,1.9-0.3,3.6-0.3,5.1c0,0.2,0,0.5,0,0.8c0,0.2,0,0.5,0,0.6
			l0,0c0.2,6.2,2,12.5,5,17.9l0.2,0.5l-14.6,14.6l-0.6-0.5c-1.5-1.3-2.9-2.7-4.4-3.8L597.8,491.9z M526.8,461.9
			c26,1.7,50.5,11.5,70.7,27.9l3.7-3.7c-21.1-17.4-47.2-27.6-74.4-29.4V461.9z M603.6,486.1c1.3,1,2.5,2.2,3.8,3.4l12.7-12.7
			c-0.8-1.6-1.6-3.2-2.2-5L603.6,486.1z M526.8,455.3c27.5,1.9,54,12.3,75.4,29.8l14.9-14.9c-1-3.2-1.7-6.7-2-10.1
			c-2.3,0.7-4.6,1-6.9,1c-12.6,0-23.1-9.4-24.5-21.9l-0.1-0.6l6.4-1.9c0-0.1,0-0.2,0-0.3c0-1.4,0.2-2.9,0.6-4.3l0.1-0.5l5.9-1.6
			l-1.6-6l0.3-0.3c1.2-1.2,2.4-2.1,3.7-2.9l-1.9-6.4l0.6-0.2c3.4-1.6,6.8-2.3,10.5-2.3c9.3,0,17.8,5.3,22,13.5
			c4.2-3.5,9.1-6,14.2-7.5c-7.2-15.4-22.7-25.3-39.7-25.3h-35.8c-8.8,16.8-24.2,28.8-42.2,33.4V455.3z M585.4,439.7
			c1.6,11.5,11.3,19.9,22.9,19.9c2.3,0,4.6-0.3,6.9-1c0-0.1,0-0.3,0-0.5c0-0.3,0-0.6,0-0.9c0-1.3,0.1-2.5,0.2-3.9
			c-2.2,0.9-4.6,1.4-7.1,1.4c-9.4,0-17.1-7.1-18.1-16.3L585.4,439.7z M615.8,458.7L615.8,458.7L615.8,458.7z M520.4,455.1
			c1.7,0,3.4,0.1,5.1,0.2v-29c-1.6,0.3-3.4,0.7-5.1,0.9V455.1z M592,433c-0.2,1.2-0.3,2.3-0.3,3.5l10.9-3l-3.1-11
			c-1,0.6-2,1.4-2.8,2.2l1.9,6.6L592,433z M608.3,418.3c7.6,0,14.5,4.9,17,11.8c1.2-1.4,2.4-2.7,3.8-3.8c-3.8-8-12-13.1-20.8-13.1
			c-3.2,0-6.4,0.7-9.3,2l1.4,4.9C602.9,419,605.5,418.3,608.3,418.3z M270.9,490.4h-0.3c-5-0.6-10-1.9-14.6-3.6
			c-5.6-2.2-10.8-5.1-15.4-8.9l-0.6-0.5l0.5-0.6c1.2-1.5,2.2-3,3.1-4.5c-1.5-1.3-3.1-2.8-4.5-4.3l-0.3-0.3l0.2-0.5
			c1.2-2,2.2-4.2,3-6.4l1.4,0.6c-0.8,2.1-1.7,4-2.8,6c1.3,1.3,2.5,2.4,3.8,3.6c0.9-1.6,1.9-3.4,2.7-5.1l0,0c1.4-3.1,2.5-6.2,3.4-9.5
			c1.2-4.4,1.6-9,1.6-13.5c0-9.1-2.3-18.3-6.6-26.4c-1,2.1-1.9,4.4-2.4,6.7c2.7,6.2,3.9,12.8,3.9,19.7c0,2.2-0.1,4.3-0.5,6.6
			c-0.6,4-1.6,8.1-3.1,12L242,461c1.5-3.8,2.5-7.8,3-11.7c0.2-2.2,0.5-4.3,0.5-6.4c0-6.7-1.3-13.2-3.9-19.3l-0.1-0.2l0.1-0.2
			c0.7-2.8,1.7-5.6,3-8.2l0,0l0.2-0.3l0,0l0.6-1.2l0,0c6.6-11.5,18.7-18.5,32.1-18.5c20.4,0,36.9,16.5,36.9,36.9
			c0,2.1-0.2,4.3-0.6,6.4l-0.7-0.1l0.7,0.1c-1.3,7.5-4.9,14.3-10.3,19.7L270.9,490.4z M242.1,477.2c4.4,3.5,9.3,6.1,14.5,8.2
			c4.4,1.7,9.1,2.9,13.9,3.5l4.4-4.4c-4.6-0.2-9.3-1-13.8-2.5c-5.9-2-11.3-4.9-16.2-8.7l0,0l0,0C243.9,474.5,243,475.9,242.1,477.2z
			 M245.5,472c4.7,3.8,10.1,6.7,15.9,8.6c4.7,1.5,9.7,2.4,14.7,2.5l26.2-26.1c5.2-5.2,8.7-11.7,10-19l0,0c0.3-2.1,0.6-4.2,0.6-6.1
			c0-19.6-15.9-35.4-35.4-35.4c-13.1,0-24.9,7.1-31.1,18.6c4.7,8.6,7.3,18.2,7.3,27.9c0,4.6-0.6,9.4-1.7,13.9
			c-0.8,3.2-2,6.6-3.4,9.7l-0.7-0.3l0.7,0.3l0,0l0,0C247.5,468.4,246.6,470.2,245.5,472z M196,462.8c-11,0-19.9-8.9-19.9-19.9
			S185,423,196,423s19.9,8.9,19.9,19.9C215.9,453.8,207,462.8,196,462.8z M196,424.4c-10.2,0-18.4,8.2-18.4,18.4
			c0,10.2,8.2,18.4,18.4,18.4c10.2,0,18.4-8.2,18.4-18.4C214.4,432.6,206.1,424.4,196,424.4z M96.2,421.5H73.4v-6.6h-6.6V292h6.6
			v-6.6h18.7v51.1c0,17.1,10.9,32.2,27.1,37.6l1,0.3l-0.7,0.8c-9.7,11-17,24.1-21.3,38.1l0,0l-0.2,0.9c-0.6,2.1-1.2,4.3-1.6,6.5
			L96.2,421.5z M74.9,420H95c0.3-1.7,0.8-3.5,1.3-5.1H74.9V420z M74.9,413.4h21.8c4.2-14,11.5-27.2,20.9-38.2
			c-16.2-5.9-27.1-21.3-27.1-38.6v-43.2H74.9V413.4z M68.4,413.4h5.1v-120h-5.1V413.4z M74.9,292h15.7v-5.1H74.9V292z M340.7,420.6
			l-0.2-1.4c-0.5-2.4-1.2-4.7-1.9-7.2v-0.1c-7.2-22-25.6-38.5-48.1-43.2l0,0c-2.2-0.5-4.4-0.8-6.5-1l-0.7-0.1v-29.8l0.8,0.1
			c1.9,0.2,3.8,0.5,5.8,0.9v-6.7l0.9,0.1c31.7,5.7,58.8,26.7,72.3,56.1l0.2,0.5l-5.1,5.1c0.9,2.1,1.7,4.2,2.4,6.2l0.1,0.5
			L340.7,420.6z M340.1,411.9c0.6,1.9,1,3.7,1.5,5.7l17.5-17.5c-0.6-1.7-1.3-3.5-2-5.2L340.1,411.9z M291.4,367.4
			c22.4,4.9,40.7,21.2,48.3,42.9l16.9-16.9c-11.8-27.3-36.1-47-65.1-52.9L291.4,367.4L291.4,367.4z M291.4,339.1
			c29.4,5.9,54,25.7,66.3,53.2l3.9-3.9c-13.3-28.5-39.5-48.8-70.1-54.6v5.3H291.4z M284.8,366.4c1.7,0.2,3.4,0.5,5.1,0.8v-26.8
			c-1.7-0.3-3.4-0.6-5.1-0.8V366.4z M183.2,402.8c-17.9,0-34.3-10.6-41.4-27l-0.3-0.8l0.8-0.2c5.7-1.5,11.1-4.5,15.6-8.4l0,0
			c1.6-1.5,3.2-3,4.6-4.7l0.9-1l0.3,1.4c2.1,7.1,8.7,12,16,12c2.7,0,5.2-0.6,7.5-1.7l-3.6-12.8l12.7-3.6c-0.7-8.6-8-15.2-16.5-15.2
			c-2.7,0-5.2,0.6-7.6,1.9l-1.3,0.7l0.2-1.4c0.2-1.9,0.3-3.6,0.3-5.1c0-0.2,0-0.5,0-0.8c0-0.2,0-0.5,0-0.6l0,0
			c-0.2-6.2-2-12.5-5-17.9l-0.2-0.5l14.6-14.6l0.6,0.5c1.4,1.3,2.9,2.7,4.4,3.8l4.7-4.7l0.6,0.5c20.4,16.8,44.9,26.4,71.2,28.1h0.7
			v6.7c2,0.1,3.9,0.1,5.8,0.2h0.7v30.7l-0.7,0.1c-20.8,2.8-39,15.6-48.6,34.4L220,403L183.2,402.8z M143.4,376
			c7.2,15.4,22.7,25.3,39.7,25.3h35.8c8.8-16.8,24.2-28.8,42.2-33.4v-29.4c-27.5-1.9-54-12.3-75.4-29.8l-14.9,14.9
			c1,3.2,1.7,6.7,2,10.1c2.3-0.7,4.6-1,6.9-1c12.6,0,23.1,9.4,24.5,21.9l0.1,0.6l-6.4,1.7c0,0.1,0,0.2,0,0.3c0,1.4-0.2,2.9-0.6,4.3
			l-0.1,0.5l-5.9,1.6l1.6,6l-0.3,0.3c-1.2,1.2-2.3,2.1-3.7,2.9l1.7,6.4l-0.6,0.2c-3.4,1.6-6.8,2.3-10.5,2.3c-9.3,0-17.8-5.3-22-13.5
			C153.4,371.9,148.6,374.5,143.4,376z M158.9,367.4c3.8,8,12,13.1,20.8,13.1c3.2,0,6.4-0.7,9.3-2l-1.4-4.9
			c-2.4,1.2-5.2,1.9-7.9,1.9c-7.6,0-14.5-4.9-17-11.8C161.5,365,160.3,366.2,158.9,367.4z M185.5,360.5l3.1,11c1-0.6,2-1.4,2.8-2.2
			l-1.9-6.6l6.5-1.9c0.2-1.2,0.3-2.3,0.3-3.5L185.5,360.5z M262.7,338.6v29c1.6-0.3,3.4-0.7,5.1-0.9v-27.9
			C266,338.7,264.3,338.7,262.7,338.6z M158.3,366.8l0.1,0.1L158.3,366.8z M179.7,339.1c9.4,0,17.1,7.1,18.1,16.3l4.9-1.4
			c-1.6-11.5-11.3-19.9-22.9-19.9c-2.3,0-4.6,0.3-6.9,1c0,0.1,0,0.3,0,0.5c0,0.3,0,0.6,0,0.9c0,1.3-0.1,2.5-0.2,3.9
			C174.8,339.6,177.3,339.1,179.7,339.1z M186.8,307.6c21.1,17.4,47.2,27.6,74.4,29.4v-5.2c-26-1.7-50.5-11.5-70.7-27.9L186.8,307.6
			z M172.2,335.1L172.2,335.1L172.2,335.1z M167.9,317.1c0.8,1.6,1.6,3.2,2.2,5l14.3-14.3c-1.3-1-2.5-2.2-3.8-3.4L167.9,317.1z
			 M659.4,398.5l-0.6-0.8c-5-6.8-11.1-12.6-18.2-17.2l0.8-1.3c6.9,4.5,13.1,10.1,17.9,16.8c8.9-13.3,13.7-28.8,13.7-45
			c0-21.5-8.4-41.6-23.1-56.7c-27.4-7.5-52.8-20.2-75.4-37.7l-0.7-0.5l5.8-5.8l0.5,0.3c17.2,13.2,36.3,23.6,56.7,31l0.1,0.1
			c23.6,15.3,37.6,41.2,37.6,69.2c0,16.8-5,32.9-14.5,46.6L659.4,398.5z M576,255.9c21.5,16.5,45.6,28.7,71.6,36.2
			c-3.5-3.4-7.4-6.4-11.5-9c-20.3-7.3-39.2-17.7-56.5-30.8L576,255.9z M592.1,370.9c-11,0-19.9-8.9-19.9-19.9s8.9-19.9,19.9-19.9
			S612,340,612,351C612,361.8,603.1,370.9,592.1,370.9z M592.1,332.5c-10.2,0-18.4,8.2-18.4,18.4s8.2,18.4,18.4,18.4
			c10.2,0,18.4-8.2,18.4-18.4C610.5,340.8,602.2,332.5,592.1,332.5z M391,370.3l-0.5-0.9c-1-2-2.1-3.9-3.2-5.9v-0.1
			c-23.6-40.6-67.3-65.7-114.1-65.7h-3.4c-16.1,0-31.8-4.3-45.7-12.3l-0.8-0.5l6-6c-3.6-1-7.2-2.5-10.5-4.4l-0.9-0.5l20.1-20.1
			l0.3,0.1c1.6,0.3,3.4,0.5,5,0.5c13.7,0,24.8-11.1,24.8-24.8c0-3-0.6-5.9-1.6-8.7h-13.9v-14.2c-3-1.2-6.1-1.9-9.3-1.9
			c-13.7,0-24.8,11.1-24.8,24.8c0,1.7,0.1,3.4,0.5,5l0.1,0.3L199,255.2l-0.5-0.9c-1.9-3.4-3.4-6.9-4.4-10.5l0,0l0,0l-5.2,5.2
			l-0.5-0.9c-5.1-9.8-8.3-20.4-9.6-31.4l1.5-0.1c1.2,10.4,4.2,20.5,8.9,30l4.4-4.4c-1-4-1.5-8.2-1.5-12.4c0-28.1,22.9-51,51-51
			c9.1,0,18.1,2.4,25.9,7.1l0,0c8.2,4.9,14.8,11.8,19.3,20.2l0,0c3.8,7.3,5.9,15.5,5.9,23.8c0,28.1-22.9,51-51,51
			c-4.2,0-8.3-0.5-12.4-1.5l-5.2,5.2c13.4,7.6,28.7,11.6,44.1,11.6h3.4c47,0,91,25.1,115,65.7L406,344
			c-17.2-26.6-42.5-47.8-71.7-60.2c-13.1-5.7-24.3-14.8-32.5-26.5l-0.2-0.3l0.2-0.3c3.9-8.4,5.9-17.6,5.9-27
			c0-15.3-5.4-30.1-15.5-41.8l0,0c-12.4-14.2-30.1-22.4-48.8-22.4c-16.7,0-32.4,6.4-44.4,17.8l-19,19c0,0.7-0.1,2.8-0.1,3.8
			c0,3.5,0.2,6.9,0.6,10.3l-1.5,0.1c-0.3-3.5-0.6-7.1-0.6-10.5c0-1.4,0.1-4.2,0.1-4.2v-0.3l19.4-19.4c12.3-11.8,28.5-18.3,45.5-18.3
			c19.2,0,37.4,8.3,49.9,22.9l0,0c10.2,11.9,15.9,27.1,15.9,42.7c0,9.5-2,18.6-5.9,27.2c8.1,11.3,19,20.1,31.6,25.7
			c29.5,12.4,54.8,33.7,72.2,60.4l0,0l0.5,0.8c0.7,1,1.4,2.2,2,3.2c0.5,0.8,1,1.7,1.5,2.5l0,0l0.2,0.5L391,370.3z M388.9,363.1
			c0.9,1.5,1.7,3.1,2.5,4.6l17.9-17.9c-0.3-0.7-0.8-1.4-1.2-2.1c-0.5-0.8-1-1.6-1.5-2.4L388.9,363.1z M232.1,278
			c3.7,0.8,7.4,1.3,11.2,1.3c27.3,0,49.5-22.2,49.5-49.5c0-9.6-2.8-18.9-7.9-26.8l0,0c-3.6-5.7-8.4-10.5-14-14.2l0,0
			c-8.2-5.6-17.8-8.4-27.7-8.4c-27.3,0-49.5,22.2-49.5,49.5c0,3.8,0.5,7.5,1.3,11.2l15.7-15.7c2.3-16.1,16.2-28.2,32.5-28.2
			c3.5,0,6.9,0.6,10.3,1.6l0.5,0.1v7.1c1.5,0.7,3,1.5,4.4,2.5l0.3,0.2v6.2h6.1l0.2,0.3c0.9,1.4,1.7,2.9,2.4,4.4h7.1l0.1,0.6
			c0.9,3.1,1.4,6.4,1.4,9.6c0,16.3-12.1,30.2-28.2,32.5L232.1,278z M220.3,273.7c3.2,1.7,6.6,3,10.2,3.9l15.2-15.2
			c-4.3,0.3-8.4-0.2-12.5-1.6L220.3,273.7z M234.2,259.7c2.9,0.9,6,1.4,9.1,1.4c1.4,0,2.7-0.1,4.2-0.2l0,0
			c15.5-2.1,27.2-15.4,27.2-31.1c0-2.9-0.5-5.9-1.3-8.7h-5.3c0.9,2.8,1.5,5.7,1.5,8.7c0,14.5-11.8,26.3-26.3,26.3
			c-1.6,0-3.2-0.1-4.9-0.5L234.2,259.7z M195.4,242.6c0.9,3.5,2.3,6.9,3.9,10.2l12.7-12.7c-1.2-3.4-1.6-6.8-1.6-10.3
			c0-0.7,0-1.5,0.1-2.2L195.4,242.6z M212.2,225.6c-0.2,1.4-0.2,2.8-0.2,4.2c0,3.1,0.5,6.1,1.4,9.1l4.2-4.2c-0.3-1.6-0.5-3.2-0.5-5
			c0-14.5,11.8-26.3,26.3-26.3c3.2,0,6.4,0.6,9.3,1.7v-5.3c-3-0.9-6.1-1.4-9.3-1.4C227.7,198.4,214.3,210.1,212.2,225.6L212.2,225.6
			z M254.1,219.6h11.8c-0.5-1.2-1.2-2.2-1.7-3.2h-6.8v-6.9c-1-0.7-2.1-1.3-3.2-1.9V219.6z M131.8,358.6c-12.1,0-22-9.8-22-22v-60.5
			h7.3l0.2,0.5c7.6,16.5,17.9,31.7,30.4,44.9l0,0c3.9,4,6,9.5,6,15.2C153.8,348.7,143.9,358.6,131.8,358.6z M111.3,277.5v59
			c0,11.3,9.1,20.5,20.5,20.5s20.5-9.1,20.5-20.5c0-5.3-2-10.3-5.7-14.1l0,0c-12.5-13.3-22.8-28.3-30.4-44.9L111.3,277.5z
			 M429.3,332l-0.5-0.8c-1.2-1.9-2.4-3.7-3.7-5.6c-9.6-14-21.2-26.6-34.3-37.6l0,0c-0.7-0.6-1.5-1.3-2.2-1.9
			c-2.1-1.7-4.2-3.4-6.4-4.9l-1.3-0.9l1.5-0.3c17.4-4.5,32.1-15.5,41.5-30.9l0,0c1.2-1.9,2.2-3.8,3.2-5.9l0.5-0.9l41,41l-4.6,4.6
			l4.6,4.6L429.3,332z M426.7,325.3c0.9,1.4,2,2.9,2.9,4.3l37-37l-3.6-3.6L426.7,325.3z M392,287c13,10.8,24.3,23.3,33.9,37
			l36.1-36.1l-37.1-37.1c-9.4,14.8-23.6,25.5-40.4,30.3c1.7,1.3,3.5,2.7,5.1,4C390.4,285.7,391.2,286.3,392,287L392,287z
			 M425.7,249.4l37.4,37.4l3.5-3.6l-38.4-38.4C427.4,246.5,426.6,248,425.7,249.4z M157.5,305.5l-0.6-0.6c-1.4-1.6-2.9-3.4-4.3-5.1
			v-0.1l0,0c-15.2-19-25.7-41.5-30.2-65.4c-1.9-7.8-7.6-12.5-15-12.5c-8.4,0-15.3,6.8-15.3,15.3v34.1H73.4v-6.6h-6.6V201
			c0-28.6,9-55.8,26-78.5l0.3-0.6l0.6,0.3c1.9,1,3.5,2.1,5.1,3.1c1.2-1.5,2.4-3.1,3.8-4.7l0.5-0.5l0.6,0.3
			c26,17.7,41.7,47,41.7,78.3v7.3c0,27.5,8.9,53.7,25.7,75.5l0.3,0.5l-4.7,4.7c1.3,1.6,2.5,3.1,3.7,4.5l0.5,0.6L157.5,305.5z
			 M154.4,299.4c1,1.3,2.2,2.7,3.2,3.9l11.2-11.2c-1-1.3-2.2-2.5-3.2-3.9l0,0l0,0L154.4,299.4z M107.5,220.4
			c8.1,0,14.6,5.4,16.5,13.8c4.4,23.3,14.6,45.5,29.4,64.1l11.2-11.2c-17.9-23.4-27.4-51.2-27.4-80.7V199
			c0-28.6-14.1-55.3-37.8-71.4C83.4,149,75,174.4,75,201.2v62.1h15.9v-26C90.7,227.9,98.2,220.4,107.5,220.4z M100.2,126.3
			c24.1,16.4,38.4,43.5,38.4,72.7v7.3c0,29,9.4,56.6,27.1,79.6l3.7-3.7c-16.8-22-25.6-48.2-25.6-76v-7.3c0-30.7-15-59.2-40.4-76.7
			C102.3,123.6,101.2,125,100.2,126.3z M74.9,269.9h15.9v-5.1H74.9V269.9z M68.4,263.3h5.1v-62.1c0-27.1,8.6-52.8,24.6-74.5
			c-1.4-0.9-2.8-1.7-4.4-2.7c-16.7,22.4-25.3,49.2-25.3,77.2V263.3z M488.1,273.2l-4.6-4.6l-4.6,4.6l-23-23l0.6-0.6
			c1.4-1.4,2.9-3,4.4-4.7l0,0c12.4-14.5,19.2-33,19.2-51.9c0-7.5-1-15-3.2-22.3v-0.1c-0.6-2.1-1.3-4.3-2.1-6.2l-0.2-0.7l27.9-9.9
			l0.2,0.7c0.7,1.9,1.3,3.7,2.1,5.6l6.1-2.2l0.2,0.7c7.2,18.7,17.1,36.4,29.4,52.5l0.3,0.5l-4.6,4.6c1.2,1.5,2.4,3.1,3.7,4.6
			l0.5,0.6L488.1,273.2z M484.5,267.6l3.6,3.6l50-50c-1-1.3-2.1-2.7-3.1-3.9L484.5,267.6z M457.9,250.2l20.9,20.9l3.6-3.6
			l-21.1-21.1C460.2,247.9,459,249.1,457.9,250.2z M462.3,245.5l21.2,21.2l50.6-50.6c-12.7-16.5-22.9-34.8-30.4-54.1l-25.2,9
			c2.1,7.3,3.1,14.7,3.1,22.2C481.5,212.1,474.7,230.8,462.3,245.5z M505,161.2c7.4,19.2,17.5,37.3,30.1,53.7l3.6-3.6
			c-12-15.8-21.8-33.3-28.9-51.7L505,161.2z M476.3,164.5c0.6,1.6,1.2,3.2,1.6,5l25.1-9c-0.6-1.6-1.3-3.2-1.7-4.9L476.3,164.5z
			 M365,258.2c-10.1,0-19.6-3.2-27.5-9.4l-0.3-0.2l0.1-0.5c1.2-6,1.7-12.3,1.7-18.4c0-15.2-3.5-29.7-10.3-43.2l-0.2-0.5l0.2-0.3
			c8.7-11.6,21.9-18.2,36.3-18.2c4.6,0,9.1,0.7,13.5,2.1v0.1h0.6v8h-0.7c-10.9,0.6-19.4,9.6-19.4,20.6c0,2.1,0.3,4.2,0.9,6.1h13.5
			V218c2,0.6,4.1,0.9,6.1,0.9c11,0,20-8.6,20.6-19.6v-0.7h8v0.6h0.1c1.4,4.4,2.1,8.9,2.1,13.5C410.3,237.8,390,258.2,365,258.2z
			 M338.7,248c7.6,5.8,16.7,8.8,26.3,8.8c24.2,0,43.9-19.7,43.9-43.8c0-3.2-0.3-6.6-1-9.7c-2.3,13.7-14,23.8-28.2,23.8
			c-2.4,0-4.7-0.3-7.1-0.9l-0.6-0.1v-6.8c-1.5-0.6-3-1.3-4.4-2.2l-0.3-0.2v-6h-6l-0.2-0.3c-0.9-1.4-1.6-2.9-2.2-4.4h-6.8l-0.1-0.6
			c-0.6-2.3-0.9-4.6-0.9-7.1c0-14.2,10.2-25.9,23.8-28.2c-3.1-0.7-6.4-1-9.7-1c-13.8,0-26.5,6.2-34.8,17.2
			c6.8,13.5,10.3,28.2,10.3,43.5C340.4,235.9,339.8,242,338.7,248z M373.4,224.9c2,0.5,4.1,0.7,6.1,0.7c14.3,0,26.2-11,27.1-25.2
			h-5.1c-0.9,11.5-10.5,20.2-22,20.2c-2.1,0-4.2-0.3-6.1-0.9V224.9z M368.7,216c1,0.6,2.1,1.2,3.2,1.6V206h-11.6
			c0.5,1.2,1,2.2,1.6,3.2h6.7L368.7,216L368.7,216z M353,204.5h5.2c-0.6-2-0.9-4-0.9-6.1c0-11.5,8.8-21.1,20.3-22v-5.1
			c-14.2,1-25.2,12.7-25.2,27.1C352.3,200.5,352.6,202.5,353,204.5z M667.3,236.7l-5.3-9.3c-11.9-3.9-23.4-9.3-34.1-16l-0.7-0.5
			l33.4-50.1v-14.2l-3.2,3.2c0.2,5-1.5,9.7-5.1,13.2c-3.5,3.5-8.3,5.3-13.2,5.1l-7.8,7.8l-1-1l8.2-8.2h0.3c4.6,0.3,9.1-1.4,12.4-4.6
			c3.2-3.2,5-7.8,4.6-12.4v-0.3l9.7-9.6l1,1l-4.5,4.5v16.2l-32.7,49.2c10.5,6.5,21.8,11.7,33.4,15.5l0.3,0.1l0.2,0.6l4.5,7.9
			l8.2-4.7l0.2,0.1c12.1,2.8,24.8,3.9,37.1,3.7v-21.3l21.4-21.4v-5.7c-3.7-3.2-5.8-8-5.8-13c0-5,2.1-9.6,5.8-12.8v-30.9h1.5v31.6
			l-0.2,0.2c-3.5,3-5.4,7.4-5.4,12c0,4.6,2,9,5.4,12l0.2,0.2v7.1L715,213v22.1h-0.7c-12.7,0.3-25.6-0.9-38-3.6L667.3,236.7z
			 M446.3,231.6L434,219.3V219c0.2-2.2,0.2-4.2,0.2-6.1c0-24.6-13.3-47.7-34.7-60l-0.3-0.2v-19.8h0.7c33.2,0,60.2,27.1,60.2,60.2
			c0,13.8-4.7,27.2-13.4,37.8L446.3,231.6z M442.6,225.7l3.6,3.6c8.1-10.3,12.6-23.1,12.6-36.3c0-32-25.9-58.3-57.9-58.7v5.1
			c29.2,0.5,52.9,24.4,52.9,53.7C453.7,205,449.8,216.2,442.6,225.7z M435.7,218.7l5.9,5.9c6.9-9.1,10.6-20,10.6-31.6
			c0-28.5-22.9-51.7-51.4-52.2v10.9c21.6,12.7,35.1,36.1,35.1,61.2C435.9,214.7,435.8,216.7,435.7,218.7z M604,203.5
			c-4.2,0-8.4-1.6-11.7-4.9c-6.4-6.4-6.4-16.9,0-23.3c6.2-6.2,16.3-6.4,22.7-0.5l18.5-18.5c-2.8-3.4-2.7-8.3,0.5-11.5
			c1.6-1.6,3.7-2.5,6-2.5c2,0,3.9,0.7,5.4,2l38.1-38.1v-4.6h5.7v5.7h-4.6l-38.1,38.1c2.8,3.4,2.7,8.3-0.5,11.6l0,0
			c-1.6,1.6-3.7,2.5-6,2.5c-2.1,0-3.9-0.7-5.6-2l-18.5,18.5c5.9,6.5,5.7,16.5-0.5,22.7l0,0C612.5,201.9,608.3,203.5,604,203.5z
			 M604,172.1c-3.8,0-7.6,1.5-10.5,4.4c-5.8,5.8-5.8,15.3,0,21.2c5.8,5.8,15.3,5.8,21.2,0c5.8-5.8,5.8-15.3,0-21.2
			C611.8,173.5,607.8,172.1,604,172.1z M640.2,143.9c-1.9,0-3.7,0.7-5,2.1c-2.8,2.8-2.8,7.2,0,9.9c1.3,1.3,3.1,2.1,5,2.1
			s3.7-0.7,5-2.1l0,0c2.8-2.8,2.8-7.2,0-9.9C643.8,144.6,642.1,143.9,640.2,143.9z M685.4,105.7h2.7v-2.7h-2.7V105.7z M309.9,170.7
			l-0.6-0.7c-1.4-1.5-2.9-3-4.5-4.6c-16.7-15.8-38.4-24.6-61.4-24.6c-4.7,0-9.5,0.3-14.3,1.2l-0.6,0.1l-0.2-0.6
			c-0.7-2.1-1.4-4.2-2.2-6.2l0.7-0.2l0,0l-0.7,0.2c-1.7-4.5-3.6-9-5.6-13.3l-0.3-0.8l0.9-0.2c7.3-1.5,14.8-2.3,22.4-2.3h135.4v26.4
			l-1-0.2c-4.3-0.8-8.6-1.2-12.8-1.2c-19.2,0-37,7.6-50.2,21.5l0,0c-1.5,1.6-3,3.2-4.3,5L309.9,170.7z M243.3,139.3
			c23.4,0,45.5,8.9,62.5,25c1.5,1.4,2.8,2.8,4,4c1-1.3,2.2-2.7,3.4-3.8c-1.3-1.4-2.7-2.8-4.1-4c-17.8-16.9-41.2-26.3-65.8-26.3
			c-5.2,0-10.5,0.5-15.6,1.3c0.6,1.6,1.2,3.2,1.7,4.9C234.1,139.6,238.7,139.3,243.3,139.3z M243.3,132.7c25,0,48.7,9.5,66.8,26.6
			c1.4,1.3,2.8,2.7,4,4c13.4-13.8,31.5-21.4,50.8-21.4c4,0,8.1,0.3,12.3,1v-23.1H243.3c-7.1,0-14.2,0.7-21.2,2.1c1.7,3.9,3.5,8,5,12
			C232.5,133.1,237.9,132.7,243.3,132.7z M180.6,165.3l-0.3-1.2c-0.5-1.6-0.9-3.4-1.4-5c-1.5,1.4-3,2.8-4.4,4.3l-0.9,0.9l-0.3-1.3
			c-7.5-25.7-22.8-48.1-44.1-64.8l-0.8-0.7l0.8-0.6c1.6-1,3.4-2.2,5-3.1c-1.6-1.3-3.1-2.4-4.7-3.6l-0.9-0.7l0.9-0.6
			c6.5-3.9,13.2-7.4,20.3-10.2l0.5-0.1l0.3,0.2c1.9,1.6,3.8,3.2,5.7,5l0.9,0.8l0,0c17.7,16.5,31.5,37,39.9,59.6l0,0l0.3,0.8
			c0.6,1.6,1.3,3.5,1.9,5.6l0.2,0.6l-0.6,0.3c-6.2,3.6-12,7.9-17.2,12.7L180.6,165.3z M180.2,158c0.5,1.5,0.9,3,1.3,4.5
			c4.9-4.5,10.3-8.4,16.1-11.8c-0.5-1.5-0.9-2.8-1.4-4C190.5,149.9,185,153.7,180.2,158z M130.9,97.9c20.7,16.4,35.8,38.4,43.4,63.6
			c1.3-1.4,2.7-2.7,4.1-3.9c-8-24.5-22.8-46.2-42.9-62.6C133.9,95.9,132.4,96.9,130.9,97.9z M136.9,94.3
			c19.9,16.4,34.7,37.9,42.8,62.2c5-4.3,10.3-8.1,16-11.3c-8.4-22.6-22.3-43.3-40.2-59.7C149,87.9,142.8,90.8,136.9,94.3z
			 M135.6,93.2L135.6,93.2c5.9-3.5,12.1-6.5,18.6-8.8c-1.4-1.3-2.9-2.5-4.4-3.8c-6.4,2.5-12.6,5.7-18.6,9.3
			C132.7,90.9,134.2,92.1,135.6,93.2L135.6,93.2z M468.1,151.2l-0.3-0.5c-1.3-2-2.5-3.9-3.9-5.7l0,0c-13.8-18.2-34.6-29.7-57.2-31.6
			h-0.1c-2.2-0.2-4.4-0.2-6.5-0.2h-0.7V76.4h6.6v-6.6h84.9v0.8c-0.1,2.1-0.2,4-0.2,5.8h6.6v0.8c0,1.9-0.1,3.8-0.1,5.7
			c0,16.2,1.9,32.4,5.6,48.1l0.1,0.7l-6.2,2.2c0.5,1.9,0.9,3.8,1.5,5.9l0.2,0.7L468.1,151.2z M465.6,144.9c1,1.4,2.1,2.9,3,4.4
			l27.7-9.9c-0.5-1.7-0.9-3.5-1.3-5.1L465.6,144.9z M407.4,112c22.7,2.1,43.5,13.5,57.3,31.7l30-10.8c-3.8-16.3-5.8-33.2-5.8-50.1
			c0-1.6,0-3.4,0-5h-81.6V112H407.4z M490.5,77.8c0,1.6,0,3.4,0,5c0,16.7,1.9,33.3,5.7,49.5l4.7-1.7c-3.6-15.6-5.4-31.7-5.4-47.8
			c0-1.6,0-3.4,0.1-5H490.5z M400.8,111.6c1.6,0,3.4,0.1,5.1,0.2v-34h-5.1V111.6z M489,76.4L489,76.4c0-1.6,0.1-3.2,0.2-5.1h-81.8
			v5.1H489z M207.5,98.5l-0.3-0.5c-6.1-9.4-13.2-18.3-20.9-26.5l-1-1.2l1.5-0.1c3.8-0.3,7.6-0.5,11.5-0.5h76.3v6.6h6.6v17.4h-37.7
			c-11.9,0-23.8,1.5-35.3,4.6L207.5,98.5z M194,78c5.1,6,9.8,12.3,14.1,18.9c11.5-3,23.3-4.5,35.2-4.5h29.7V77.8h-74.8
			C196.8,77.8,195.4,78,194,78z M274.5,92.3h5.1V77.8h-5.1V92.3z M188.5,71.6c1.5,1.6,2.9,3.2,4.4,4.9c1.7-0.1,3.6-0.1,5.4-0.1h74.8
			v-5.1h-74.8C195,71.2,191.7,71.4,188.5,71.6z M377.9,93.8h-82.9V76.4h6.6v-6.6h77v6.6h6.6v17.4H377.9z M303.2,92.3h73.9V77.8
			h-73.9V92.3z M296.7,92.3h5.1V77.8h-5.1V92.3z M378.7,92.3h5.1V77.8h-5.1V92.3z M303.2,76.4h73.9v-5.1h-73.9V76.4z M78.7,64.4
			l-1-1.2c19.1-16.7,41-29,65-36.7l3.6-6.4c-27.2,7.9-52.7,21.9-74.1,41.2l-1-1.2c22-19.9,48.1-34.1,76.3-41.9l0.2-0.5l0.5,0.2
			c16.2-4.4,33.1-6.7,50.2-6.7h343.3l-1.6,1.3c-2,1.6-3.7,3.4-5.3,5.2h9.1l-1.4,1.3c-5.4,5.1-9.1,12-10.4,19.3l-0.2,1.4l-6.7-6.7
			l0.1-0.5c1.4-4.9,3.6-9.4,6.5-13.4H198.4c-14.1,0-28.2,1.6-41.9,4.9l-0.2,0.1l-7.9-4.4l-4.4,7.9l-0.2,0.1
			C119.5,35.5,97.8,47.8,78.7,64.4z M526.5,33l4.2,4.2c1.4-6.6,4.6-12.6,9.4-17.5h-6.6C530.3,23.6,528,28.1,526.5,33z M150,19.3
			l6.4,3.6c13.7-3.2,27.8-4.9,41.9-4.9h334.4c1.4-1.9,3-3.5,4.7-5.1H198.2C181.8,13.1,165.6,15.1,150,19.3z"/>
	</g>
</g>
</svg>
