<?xml version="1.0" encoding="utf-8"?>
<!-- Generator: Adobe Illustrator 19.2.1, SVG Export Plug-In . SVG Version: 6.00 Build 0)  -->
<svg version="1.1" id="Layer_1" xmlns="http://www.w3.org/2000/svg" xmlns:xlink="http://www.w3.org/1999/xlink" x="0px" y="0px"
	 viewBox="0 0 40 40" style="enable-background:new 0 0 40 40;" xml:space="preserve">
<style type="text/css">
	.st0{fill:#B59757;}
</style>
<g>
	<polygon class="st0" points="11.1,10.5 14,10.5 14.8,7.6 9.2,4.3 	"/>
	<polygon class="st0" points="28.9,10.5 30.8,4.3 25.2,7.6 26,10.5 	"/>
	<g>
		<path class="st0" d="M28.9,13.9c-0.6,0-5.1-1.6-5.1-1.6L20,16.8l-3.8-4.5c0,0-4.4,1.6-5.1,1.6c-3.2,0-2-3-2-3s-8.2,8.4-9.1,15
			c0,0,2.4-3.7,10.2-5.5c1.2,2.5,3.3,4.4,5.8,5.4c-0.3-1.3-0.6-2.8-0.9-4.2c-0.6-0.5-1.1-1.1-1.6-1.8c0.3,0,3-0.3,3.4-0.3
			c0.3,1.1,1.9,12,1.9,12l-2.9,4.3V40l4.1-1.7l4.1,1.7v-4.3l-2.9-4.3c0,0,1.6-10.9,1.9-12c0.3,0,3,0.3,3.4,0.3
			c-0.4,0.7-1,1.3-1.6,1.8c-0.4,1.5-0.7,2.9-0.9,4.2c2.6-1,4.6-2.9,5.8-5.4c7.8,1.9,10.2,5.5,10.2,5.5c-0.9-6.5-9.1-15-9.1-15
			S32.1,13.9,28.9,13.9"/>
	</g>
	<polygon class="st0" points="20,0 16.8,8.9 16.9,8.9 20,13 23.1,8.9 23.2,8.9 	"/>
</g>
</svg>
