<?xml version="1.0" encoding="utf-8"?>
<!-- Generator: Adobe Illustrator 19.2.1, SVG Export Plug-In . SVG Version: 6.00 Build 0)  -->
<svg version="1.1" id="Layer_1" xmlns="http://www.w3.org/2000/svg" xmlns:xlink="http://www.w3.org/1999/xlink" x="0px" y="0px"
	 viewBox="0 0 40 40" style="enable-background:new 0 0 40 40;" xml:space="preserve">
<style type="text/css">
	.st0{fill:#B59757;}
</style>
<g>
	<g>
		<path class="st0" d="M36.8,0c0,11.4-10.6,15.3-10.6,15.3l-1.7,9.3c-0.1,0.3-0.2,0.7-0.2,1c0,1.6,1.3,2.9,2.9,2.9
			c1.6,0,2.9-1.3,2.9-2.9c0-1.4-1-2.6-2.4-2.8c2.8-4.8,6.8-2.5,6.8-2.5c0.6-0.6,1.1-1.2,1.6-1.7l-3-1.2h3.9c1.2-1.6,1.9-3.2,2.4-4.7
			l-4-1.6h4.3C40.9,4.5,36.8,0,36.8,0"/>
		<path class="st0" d="M13.8,15.3c0,0-10.6-3.9-10.6-15.3c0,0-4.1,4.5-3.1,10.9h4.3l-4,1.6c0.4,1.2,0.9,2.4,1.7,3.7h4.6l-3.6,1.5
			c0.6,0.8,1.3,1.7,2.2,2.5c0,0,4-2.3,6.8,2.5c-1.4,0.2-2.4,1.4-2.4,2.8c0,1.6,1.3,2.9,2.9,2.9c1.6,0,2.9-1.3,2.9-2.9
			c0-0.4-0.1-0.7-0.2-1L13.8,15.3z"/>
	</g>
	<path class="st0" d="M17.9,8.6L19,5.8h2l1.1,2.9L20,14.5L17.9,8.6z M17.5,1.9l-2.9,6.7l4.2,10.6v9.9l-2.1,6.7l2.1,4.2h2.4l2.1-4.2
		l-2.1-6.7v-9.9l4.2-10.6l-2.9-6.7H17.5z"/>
</g>
</svg>
