<?xml version="1.0" encoding="utf-8"?>
<!-- Generator: Adobe Illustrator 19.2.1, SVG Export Plug-In . SVG Version: 6.00 Build 0)  -->
<svg version="1.1" id="Layer_1" xmlns="http://www.w3.org/2000/svg" xmlns:xlink="http://www.w3.org/1999/xlink" x="0px" y="0px"
	 viewBox="0 0 40 40" style="enable-background:new 0 0 40 40;" xml:space="preserve">
<style type="text/css">
	.st0{fill:#B59757;}
</style>
<g>
	<g>
		<path class="st0" d="M35,25.8L22.1,36.7v-9.4h3.1v-3.8H14.8v3.8h3.1v9.5L5,25.8L2.6,7.9l11.5-4.4C16,2.8,17.9,2.4,20,2.4
			c2.1,0,4,0.4,5.9,1.1l11.5,4.4L35,25.8z M26.8,1.2C24.6,0.4,22.3,0,20,0c-2.3,0-4.6,0.4-6.8,1.2L0,6.3L2.8,27l13.8,11.8
			c1,0.8,2.2,1.2,3.4,1.2c1.2,0,2.5-0.4,3.4-1.2L37.2,27L40,6.3L26.8,1.2z"/>
		<path class="st0" d="M32,12.6L25,8v2.2H15V8l-6.8,3c-0.5,0.2-0.8,0.8-0.7,1.3l1.8,8c0.1,0.4,0.5,0.8,0.9,0.9l4.7,1v-2.2h10v2.2
			l4.8-1c0.5-0.1,0.8-0.4,0.9-0.9l1.8-6.5C32.6,13.4,32.4,12.9,32,12.6"/>
	</g>
	<polygon class="st0" points="23.1,7.5 16.9,7.5 20,4 	"/>
</g>
</svg>
